/* XPM */
static char *result[] = {
/* columns rows colors chars-per-pixel */
"32 40 19 1 ",
"  c #989898",
". c gray60",
"X c #9F9F9F",
"o c #A5A5A5",
"O c #ACACAC",
"+ c #B2B2B2",
"@ c gray72",
"# c gray75",
"$ c #C5C5C5",
"% c gray80",
"& c #D2D2D2",
"* c #D8D8D8",
"= c #DFDFDF",
"- c gray90",
"; c gray92",
": c gray95",
"> c #F8F8F8",
", c white",
"< c None",
/* pixels */
"<<<<<<<<<<<<<<<<<<<<<<<<<<<<<<<<",
"<<<<<<<<<<< ..........<<<<<<<<<<",
"<<<<<<<<................ <<<<<<<",
"<<<<<<<.....X#%%%%%@X.....<<<<<<",
"<<<<< ....$:,,,,,,,,,=+....<<<<<",
"<<<< ...@>,,,,,,,,,,,,,&X...<<<<",
"<<<<...#>,,,,,,,,,,,,,,,;X...<<<",
"<<<...#,,,,,,,,,,,,,,,,,,=...<<<",
"<< ..O>,,,,,,,,,,,,,,,,,,,#...<<",
"<<...:,,,,,,,,,,,,,,,,,,,,-...<<",
"<...@,,,,,,,,,,,,,,,,,,,,,,X..<<",
"< ..*,,,,,,,,,=%%-,,,,,,,,,+..<<",
"< ..-,,,,,,,,%....#,,,,,,,,+..<<",
"< ..-,,,,,,,,......,,,,,,,,+..<<",
"< ..=,,,,,,,,......,,,,,,,,X..<<",
"<<..%,,,,,,,,o....#,,,,,,,;...<<",
"<<..O,,,,,,,,:%++%,,,,,,,,@.. <<",
"<<...-,,,,,,,,,,,,,,,,,,,&...<<<",
"<< ..O,,,,,,,,,,,,,,,,,,&....<<<",
"<<<...@>,,,,,,,,,,,,,,,-o... <<<",
"<<....%,,,,,,,,,,,,,,,,,,&...<<<",
"<<...#,,,,,,,,,,,,,,,,,,,,*...<<",
"< ..O,,,,,,,,,,,,,,,,,,,,,,@...<",
"<...-,,,,,,,,,,,,,,,,,,,,,,:...<",
"<..o,,,,,,,,,>#...+;,,,,,,,,O..<",
" ..$,,,,,,,,,o.....o,,,,,,,,%..<",
" ..%,,,,,,,,>.......,,,,,,,,%..<",
" ..%,,,,,,,,-.......,,,,,,,,%..<",
" ..#,,,,,,,,,X.....%,,,,,,,,$..<",
"<..o,,,,,,,,,-$X..&,,,,,,,,,o..<",
"<...=,,,,,,,,,,,,,,,,,,,,,,*...<",
"< ..o,,,,,,,,,,,,,,,,,,,,,>o.. <",
"<<...#,,,,,,,,,,,,,,,,,,,>+...<<",
"<<<...#,,,,,,,,,,,,,,,,,>O...<<<",
"<<< ...+;,,,,,,,,,,,,,>%o... <<<",
"<<<<.....#-,,,,,,,,,:%X.....<<<<",
"<<<<< .....X+@%%%%#o......<<<<<<",
"<<<<<<< ............... <<<<<<<<",
"<<<<<<<<<............ <<<<<<<<<<",
"<<<<<<<<<<<<<<<<<<<<<<<<<<<<<<<<"
};
