/* XPM */
static char *result[] = {
/* columns rows colors chars-per-pixel */
"26 37 17 1 ",
"  c #989898",
". c gray60",
"X c #9F9F9F",
"o c #A5A5A5",
"O c #ACACAC",
"+ c #B2B2B2",
"@ c gray72",
"# c gray75",
"$ c gray80",
"% c #D8D8D8",
"& c #DFDFDF",
"* c gray90",
"= c gray92",
"- c gray95",
"; c #F8F8F8",
": c white",
"> c None",
/* pixels */
">>>>>>>>>>> ............>>",
">>>>>>>>>>...............>",
">>>>>>>>>.................",
">>>>>>>>....*::::::::::...",
">>>>>>>>...$::::::::::-...",
">>>>>>>...@:::::::::::*.. ",
">>>>>> ..O;:::::::::::*.. ",
">>>>>....=::::::::::::*.. ",
">>>> ...%:::::::::::::$...",
">>>>...$::::::::::::::$..>",
">>>...#:::::::::::::::$..>",
">>...O::::::::::::::::$..>",
"> ..O;::::::::::::::::#..>",
">..X=:::::::::::::::::+..>",
">...X%-:::::=:::::::::+..>",
"> .....+$***O:::::::::+..>",
">> ..........:::::::::+..>",
">>>>> ......+:::::::::+..>",
">>>>>>>>> ..+:::::::::+..>",
">>>>>>>>>>..+:::::::::+..>",
">>>>>>>>>>..$:::::::::O..>",
">>>>>>>>>>..$:::::::::...>",
">>>>>>>>>...%:::::::::...>",
">>>>>>>>> ..*:::::::::...>",
">>>>>>>>>...;:::::::::...>",
">>>>>>>>>...::::::::::...>",
">>>>>>>>>..+::::::::::...>",
">>>>>>>>>..@::::::::::o..>",
">>>>>>>>...$::::::::::+..>",
">>>>>>>> ..&::::::::::+..>",
">>>>>>>>...=::::::::::+..>",
">>>>>>>>...:::::::::::+..>",
">>>>>>>>..O*;::::::;**O..>",
">>>>>>>>.....+++++O......>",
">>>>>>>>>...............>>",
">>>>>>>>>> .......... .>>>",
">>>>>>>>>>>>>>>>>>>>>>>>>>"
};
