/* XPM */
static char *result[] = {
/* columns rows colors chars-per-pixel */
"70 70 152 2 ",
"   c #537B18",
".  c #5A4537",
"X  c #5D652F",
"o  c #607928",
"O  c #707C2F",
"+  c #6F6A36",
"@  c #56114E",
"#  c #89773E",
"$  c #89217E",
"%  c #946648",
"&  c #5A8900",
"*  c #5A8A00",
"=  c #5B8A00",
"-  c #5B8A01",
";  c #5B8B01",
":  c #5C8B01",
">  c #5C8B02",
",  c #5C8C02",
"<  c #5D8D03",
"1  c #5D8E03",
"2  c #5E8E03",
"3  c #598807",
"4  c #5E8E04",
"5  c #5E8F04",
"6  c #5F8F04",
"7  c #5F8F05",
"8  c #5D8D06",
"9  c #57840C",
"0  c #5F9005",
"q  c #5F9105",
"w  c #58811F",
"e  c #5F8B18",
"r  c #609105",
"t  c #609106",
"y  c #609206",
"u  c #619307",
"i  c #629307",
"p  c #629408",
"a  c #629508",
"s  c #639508",
"d  c #639509",
"f  c #639609",
"g  c #64960A",
"h  c #64970A",
"j  c #65980B",
"k  c #65990B",
"l  c #66990C",
"z  c #669A0C",
"x  c #679A0D",
"c  c #679B0D",
"v  c #679C0D",
"b  c #689C0D",
"n  c #689C0E",
"m  c #689D0E",
"M  c #699D0E",
"N  c #699D0F",
"B  c #699E0F",
"V  c #6A9F0F",
"C  c #6A9F10",
"Z  c #6A9F11",
"A  c #699C12",
"S  c #689815",
"D  c #6B9D14",
"F  c #65911A",
"G  c #66911B",
"H  c #6B941D",
"J  c #6B9F1B",
"K  c #6AA010",
"L  c #6BA010",
"P  c #6BA111",
"I  c #6CA211",
"U  c #6CA212",
"Y  c #6CA312",
"T  c #6DA312",
"R  c #6DA412",
"E  c #6EA413",
"W  c #6EA513",
"Q  c #6FA613",
"!  c #6FA614",
"~  c #6FA714",
"^  c #6BA018",
"/  c #70A714",
"(  c #70A814",
")  c #70A815",
"_  c #71A815",
"`  c #71A915",
"'  c #71AA15",
"]  c #72AA16",
"[  c #72AB16",
"{  c #73AB16",
"}  c #73AC17",
"|  c #74AC17",
" . c #74AD17",
".. c #74AE17",
"X. c #74AE18",
"o. c #75AE18",
"O. c #75AF18",
"+. c #76AF18",
"@. c #76B018",
"#. c #76B019",
"$. c #76B119",
"%. c #77B119",
"&. c #77B219",
"*. c #77B21A",
"=. c #78B21A",
"-. c #78B31A",
";. c #79B41A",
":. c #79B41B",
">. c #79B51B",
",. c #7AB51B",
"<. c #7AB61B",
"1. c #79B41C",
"2. c #7AB61C",
"3. c #7BB61C",
"4. c #7BB71C",
"5. c #7BB81C",
"6. c #7CB81C",
"7. c #7CB81D",
"8. c #7CB91D",
"9. c #7DB91D",
"0. c #7DBA1D",
"q. c #7EBB1D",
"w. c #7EBB1E",
"e. c #7EBC1E",
"r. c #7FBC1E",
"t. c #7FBD1E",
"y. c #7FBC1F",
"u. c #7FBD1F",
"i. c #5B8423",
"p. c #5E8825",
"a. c #638721",
"s. c #6E8A26",
"d. c #788D2A",
"f. c #729421",
"g. c #72A823",
"h. c #75AD21",
"j. c #75AD23",
"k. c #7BB720",
"l. c #7EBB20",
"z. c #80BD1F",
"x. c #80BE1F",
"c. c #808334",
"v. c #80BD21",
"b. c #80BE20",
"n. c #80BD23",
"m. c #80BC24",
"M. c #80BC25",
"N. c #81B631",
"B. c #7301A5",
"V. c #AF46A4",
"C. c #FF1AE6",
"Z. c #D287CA",
/* pixels */
"% % % % % % % & & & & & & & % & & & & % & % % % % % % % % % . . . & & & & . & & & & & & & & & & & & & & & & & & & % % % % % % . & % & . & & ",
"% % % & % % % % & & % % & & % & & & & % & & & & % % % & & % . . & & & & & & & & . & & & & & & & & & & & & & & & & & % & . . % . & . . . % & ",
"% % % % & % & & & % & & % & % . & & % % % & & % % & & & % % . & & . & . . & . . . & & & & & & & & & & . & & & & . & % & . & . . . . . % % % ",
"& % % % % % % % . & % % & & & & . . % % % % % % % % & & % % . . & . . & . . . & . . & & & . & & & & & & & & & & & & % & . & & . . % . % % % ",
"& % % % % % % . . % % % & & % & % & % % & & % & % % & & & . . & & & & & & . & & & & & & . & & & & & & & & & % % & & % & & & & . & & . . % % ",
"% % % % % % % . . . % % & & . & & % & % % & % & & & & . & . . . & . & & & . . & & & & . . & & . & & & . & & & & . . % & . & % . . & . % % & ",
"% % % % % % % . . % & % & % % & & . % & % & & & % & & & & & & . & & & & & . . & & & . . . . . & & & & . & & % % . & & & . & % % . % . % % . ",
"& % % % % & % . & % . % . . % . . . % & % & & & & & & & & & & & & . & . & . . & & & . . . . . & % & & . & & % % . . % & . . . % & & . & % . ",
"% % % & & % & . . % . . % . . . % . . % % & . & & & & & & & . . & . & & . p - & & . & . & % . & & & & & & & % % . . . & . . & % % & . & & & ",
"% % % % & % . . % & % % % % . & & & & & % . & % & % & & . & & . . & . & . <.w.. & & & . . . & & & % & . . a.#.w.=.. % . & . % & % & . & % & ",
"& % % % . & . . . & . K #.0.8.) 0 & & & . . & % . % & & & . & % . & . . f 0.x.x.L . & . % % % % % % & X ;.z.x.x.x.4.+ . . . % & % & . & & & ",
"& & & % % % % % . Y 4.u.x.x.x.x.4.I 1 . . . . . & & % & & % % % & % . & y 9.x.x.x.Q . . . % % % & > / t.x.x.x.x.x.x.8.H . . . . % & . & & & ",
"& & % % % % % g -.z.x.x.x.x.x.x.x.u.-.A . . . . & % & & % % . . & & . & 0 8.x.x.x.x.! & % & & & % o.x.x.x.x.x.x.x.B.B.0.V . . . . . . . & % ",
"& & % & & - C 0.x.x.x.x.x.x.x.x.x.x.x.r.;.Q # . , > ; ; - * & & . & . & y 9.x.x.x.x.x.! % % % - ` x.x.x.x.x.x.x.B.C.$ $ w.P ; & % & . . & % ",
"& & % % % Y w.x.x.x.x.B.$ $ C.x.x.x.x.x.x.u.w.6.-.%.#.O. .~ B u ; . . . a.w.x.x.x.x.x.x.E % & h r.x.x.x.x.x.x.x.B.C.$ $ $ t.#.f % & % % & & ",
"& & % % W 0.x.x.x.x.B.B.B.$ x.x.x.x.x.x.x.x.x.x.x.x.x.x.x.u.w.;.I 4 . . ..z.x.x.x.x.x.B.u.W , X.x.x.x.x.x.x.x.x.B.C.$ $ x.x.x.4.j & & & & % ",
"& & % %.t.x.x.x.x.x.B.x.B.B.x.x.x.x.x.x.x.x.x.x.x.x.x.x.x.x.B.z.8.! f.} e.x.x.x.x.B.$ $ x.u./ 0.x.x.x.x.x.x.x.x.x.x.x.x.x.x.x.x.4.. . & & & ",
"& % ` t.x.x.x.x.x.x.x.B.B.x.x.x.x.B.B.x.x.x.x.x.x.x.x.x.x.B.B.B.x.w.8.u.x.x.x.x.x.B.x.$ $ x.t.u.x.x.x.x.x.x.x.x.x.x.x.x.x.x.x.x.x.4.X * & & ",
"% B 0.x.x.x.x.x.x.$ x.x.x.x.x.x.x.B.x.B.x.x.x.x.x.x.x.B.$ $ B.B.x.B.x.x.x.x.x.x.x.B.$ $ x.x.x.x.x.x.x.x.x.x.x.q.e.x.x.x.x.x.x.x.x.x.4.l - & ",
"p ,.x.x.x.x.B.B.C.$ C.x.x.x.x.x.B.C.C.$ x.x.x.x.x.x.x.B.$ $ $ B.x.x.x.x.x.x.x.x.x.x.x.x.x.x.x.x.x.x.x.x.x.x.t.-.I o.u.x.x.x.x.x.x.B.x.6.a.- ",
"{ u.x.x.x.x.x.B.B.x.x.z.r.u.x.x.x.C.C.$ $ B.B.x.x.x.x.B.$ $ B.x.B.x.B.x.x.x.x.x.x.x.x.x.x.x.x.x.x.x.x.x.x.x.0.` . . ` u.x.x.x.x.x.x.B.x.0.L ",
"0.x.x.x.x.x.B.x.B.x.e.;.%.8.r.x.x.B.C.$ x.B.B.x.x.x.x.x.B.B.B.B.B.x.x.x.x.x.x.x.x.,.u.x.x.x.x.$ $ B.x.x.x.x.4.C . . . ! t.x.x.B.C.$ B.x.x.u.",
"x.x.x.x.x.x.B.B.x.t.O.b L { >.0.t.x.B.B.x.B.x.x.x.x.x.x.x.B.B.B.B.x.x.x.x.x.x.x.8.% ,.x.x.x.B.C.$ $ x.x.x.u.%.f . & . . W r.x.x.B.$ $ x.x.x.",
"x.x.x.x.x.x.x.x.x.6.v , r k T } -.4.0.e.t.u.z.u.z.z.x.x.x.x.x.x.x.x.x.x.x.x.x.e.P % C e.x.x.B.$ $ C.x.x.x.e.! . . . . . . T r.x.C.$ x.x.x.x.",
"x.x.x.x.x.x.x.x.r.[ 5 & - < 0 h m R _  .O.#.%.#.%.&.<.8.r.x.x.z.x.x.x.x.x.u.8.E > & % O.z.x.x.C.C.B.x.x.x.2.+ . . & . . . . K w.x.x.x.x.x.x.",
"x.x.x.x.x.x.x.x.<.j * & & & - ; < 5 t u p d p a p g z T  .>.&. .] } O.%.#.) % % % % % % ,.x.x.x.x.x.x.x.r.` . . & . . . . . . s.9.x.x.x.x.x.",
"x.x.x.x.x.x.x.w.! % % % & % % & & & & * - & = % % % % % % j u 2 < < 2 % % % % & & & % % I 0.x.x.x.x.x.x.-.. & . . . . & . % . . k 4.x.x.x.x.",
"x.x.x.x.x.x.u...% % % % % % % % % % & & & & & % % . % % & & & & & & & % & % & & & & % % % ] e.x.x.x.x.9.C . . . . . & & & . . . % d >.x.x.x.",
"x.x.x.x.x.u.*.% . % . & & & % & % % & & & . . % % . & % % & & & & % % & & & & & & & % % % % &.t.x.x.r.~ . & . . & & . & . . . & % & . -.x.x.",
"x.x.x.x.z.*.. % % % . & & & & % & % % % % % % % & . . . % & & & & % % & & & % & & & & % % . L 4.z.x.o.0 . . . & & & & % . % . . & . . . :.x.",
"x.x.x.t.o.. . & . % . . % % % % % % % % . % & & & & & % % % & & & % & & % & % & & & & . % % . ` 0.>.d & & . & . & . % . % % & & & & . & d 6.",
"x.x.w.) . . . . . . . & % % % % % % % % & & & & & & & & . % % % . % & & & & % & & & % % % % . O o.n . . . . . & . . % . & % % & . . . & & B ",
"x.4.G . % & & % . % % % % % % % % & % % & % & & & . . & . % . . . % & & & & % & & & & & % % . % d.. & . . . . . % & . % % . % % . . % & & ; ",
"o.. . % & . . % % . % % % % % & . % & % % . & & & . & . . . . . % % & & & & % % & & & & & % % . . & & . . & & & . . % % & & & . & % % % & & ",
", . % % % . & . % . . % . % % & & & & % % & & & & . & & . . & . % % & . & % % & & & & & % & % % % & & & . & % . % & % > 3 % % % % % % % & & ",
"& & . . % % % . . . % % % % % % & & % % % % & & & & % % . % & . . % % % % % % % & & & & & . % % % & % . & % . & . % 8 ^ i.  % % % & % % & & ",
"& . . . % . % % % . % . % % % & . % % & & . . & & . % % . . & . & % % . % % & . & . . & & % % % % & . % & & % . . 9 w h.j.p.e % & % % % % & ",
"& . . . . % . & & . % % % % % % . % % & & . & & & . % % % . % . & & . . & . & . % % % . % & & . . . . . & & . . . J g.l.y.k.1.c - & % % % & ",
"& & . . . % % . . . % % % & % & . % % % % . . & & . . . & % & . & & . . % . . . . & % & . . . . % % % . . . . . o.y.x.x.x.x.u.-.y & & & % & ",
". & . % % . % % . . % % r : % % & % % % % . . . % . . % % % & . & & & . % - ; . & % % . . . % . % % % & % . u O.t.x.x.x.x.x.x.r.! ; & % & & ",
". & & % % % . . . % I o.` d % % . . . . . . . & . % . & & & % . % & & % % % g = % % & . & & % % & . % . & %  .t.x.x.x.x.x.x.x.x.<.u % % & & ",
"& & . % % % . % % K o.8.0.) % % . . . % . . . . . . . & & & % . % % % & % D ` % % % & % & . . % . . & . % [ t.x.x.x.x.x.x.x.x.x.t.R % & & & ",
"& & . & % % % % D [ <.r.x.4.T 4 % % % % & % . . . . . . . & % . % & & % % O.<.t . . & . % . % % % . % . W w.x.x.x.x.x.x.x.x.x.x.x.%.1 & & & ",
"& . . - , % h Z ' -.0.z.x.u.-.d.% % & & & . & & & . . . . . . . . & % 2 I 0.w.c & . & & . . . . . % % C 0.x.x.x.x.x.x.x.x.x.x.x.x.0.j & & & ",
"& * . r j B W } -.8.t.x.x.x.e.} p - & & & . & % & % . & % & & . . * < c.-.x.x.) - . . . . % % . & . f 4.x.x.x.x.x.x.x.@ @ @ x.x.x.u.E - & & ",
"= 5 z T ` O.-.3.9.r.z.x.x.x.x.8.T 5 & & & . & . & . . . & & % & - 1 j  .r.x.x.,.0 & . . . . . % & 7 %.x.x.x.x.x.x.x.V.V.x.x.x.x.x.x.$.< & & ",
"u I  .:.6.9.w.e.t.u.x.x.x.x.x.z.-.v , & & . & & & . . & & % & - % c.[ 0.x.x.x.w.m & . & & % % % ; / u.x.x.x.x.@ x.x.V.Z.V.@ @ x.x.x.4.p & & ",
"! :.w.r.u.x.z.x.x.x.x.x.x.x.x.x.e. .f ; & & & & % % . % % % - t B  .9.x.x.x.x.x.O.< & % % . % * f.0.x.x.x.x.x.x.x.@ V.V.Z.@ x.@ @ @ e.C & & ",
"6.t.x.x.x.x.x.x.x.x.x.x.x.x.x.x.x.0.` p > & & & & % & & % % % L #.0.z.x.x.x.x.x.0.c & % & % . . ,.x.x.x.x.x.x.x.x.@ V.Z.Z.Z.@ @ Z.V.z.] , & ",
"u.x.x.x.x.x.b.x.x.x.x.@ x.x.x.x.x.x.7.( f > & & & & & % % < V %.w.x.x.x.x.x.x.x.x.@.4 % % % % ] u.x.x.x.x.x.x.@ @ Z.x.Z.Z.Z.x.V.V.@ Z.:.p & ",
"x.x.x.x.x.x.b.x.x.x.@ @ @ x.x.x.x.x.x.8.[ j 1 - & & & & * f ..w.x.x.x.x.x.x.x.x.x.r.I . . % c.0.x.Z.V.x.x.x.x.x.x.Z.x.x.x.x.x.V.Z.Z.Z.0.L , ",
"x.x.x.x.x.x.@ @ x.x.N.V.Z.@ Z.x.x.x.x.x.0.o.C t ; & & & % I 8.x.x.x.x.x.x.x.@ x.x.x.4.% . . +.x.x.V.x.Z.x.x.x.@ Z.Z.x.x.x.x.x.V.V.Z.Z.u.O.d ",
"x.x.x.x.x.x.x.@ x.x.M.@ Z.V.x.x.x.x.x.x.x.e.>.! g < - & 0 O.t.x.x.x.x.x.x.x.x.x.@ x.x.%.. + 0.x.x.x.Z.@ Z.x.@ V.V.V.x.@ x.x.x.V.V.Z.x.Z.6.! ",
"x.x.x.x.x.V.Z.Z.x.x.n.V.V.Z.Z.x.V.x.x.x.x.x.u.6.} N q - h 4.x.x.x.@ x.x.x.Z.x.x.x.x.@ u.{ ` u.x.x.V.Z.V.Z.x.@ V.u.u.@ x.@ x.x.x.x.x.x.x.t.8.",
"x.x.x.x.V.Z.V.@ b.v.m.V.Z.Z.Z.Z.V.x.x.x.x.x.x.z.0.%.Y p I e.x.x.x.@ Z.x.x.Z.x.x.x.Z.x.x.w.<.x.x.x.x.Z.Z.x.x.@ u.7.w.@ x.@ x.x.x.x.x.x.x.x.x.",
"x.x.x.x.Z.V.Z.x.x.v.x.V.V.Z.Z.Z.@ V.x.x.x.Z.x.x.x.w.:.!  .x.x.x.@ V.Z.@ Z.V.Z.@ x.Z.x.x.x.u.x.x.x.x.x.x.x.x.x.q.+.6.x.@ x.x.x.x.x.x.x.x.x.x.",
"x.x.x.x.Z.V.Z.x.x.x.x.x.V.Z.Z.Z.@ x.x.x.Z.Z.V.x.x.@ r.2.6.x.x.x.@ Z.Z.V.Z.Z.Z.x.Z.@ Z.V.x.x.x.x.@ x.x.x.x.x.x.>.E ;.t.x.x.x.x.x.x.x.x.x.x.x.",
"x.x.x.x.@ Z.@ @ x.x.x.x.x.x.Z.x.x.x.@ x.Z.@ Z.x.x.@ @ t.z.x.x.x.x.@ @ @ V.u.5.t.Z.Z.Z.V.x.x.x.@ @ x.x.x.x.x.r.} o } 0.x.x.x.x.x.Z.Z.x.x.x.x.",
"x.x.x.x.x.x.@ x.x.x.x.x.x.x.x.x.x.x.x.x.V.V.V.x.x.x.x.@ Z.Z.@ x.V.x.@ @ V.w.P ` @ V.Z.x.@ @ V.@ @ @ @ x.x.x.7.L . P <.u.x.x.x.x.x.@ V.V.x.x.",
"x.x.x.x.@ @ @ x.x.x.x.x.x.x.x.x.x.x.@ @ @ V.V.x.@ x.@ x.Z.V.Z.x.V.x.V.@ x.6.k . o.@ x.V.@ @ Z.V.@ x.@ x.x.z.-.. . .  .w.x.x.x.x.@ Z.Z.V.x.x.",
"x.x.x.x.x.z.r.w.9.8.9.0.w.r.u.x.x.x.x.@ x.@ x.x.x.x.@ x.V.V.V.V.V.x.x.x.x.-.. & . -.V.x.@ @ @ V.Z.x.@ @ x.r.] . . % L >.u.x.x.x.@ Z.V.V.x.x.",
"x.x.x.x.e.3.o.! K F o o a.S V / <.t.x.x.x.@ x.x.x.x.x.x.Z.Z.Z.V.V.x.x.x.u.} 2 . & . 8.x.@ @ V.V.V.@ x.@ x.9.C . . . % ` 8.x.x.x.x.Z.Z.x.x.x.",
"x.x.x.0.#.I d 2 . . . . . . & * y ` 0.x.x.x.x.x.x.x.x.x.x.Z.x.x.x.x.x.x.0.P . . . & a.u.x.@ x.x.x.x.x.x.x.;.% . . . . l ..w.x.x.x.x.V.x.x.x.",
"x.x.0. .a.. . & . . . . . . . . & 6 T <.u.x.x.x.x.@ x.x.x.x.x.x.x.x.x.u.o.. . . & . . o.x.x.x.Z.x.x.x.x.t.] 0 & & . . . H %.e.x.x.x.x.x.x.x.",
"x.w. .j . . . . . . . . . . . . . . , x o.0.x.x.x.x.x.x.x.x.x.x.x.x.z.%.% % . . . . . i r.x.x.x.x.x.x.x.8.Z ; & . . . . . K :.r.x.x.x.x.x.x.",
"r.#.l , & . . . . . . & . . . . . & & % % T -.w.x.x.x.x.x.x.x.x.x.r.{ . % . . . . . . . +.x.x.x.x.x.x.u.#.. % & . % & % % % R <.u.x.x.x.x.x.",
":.M , . . . . & . . . . . . & & . % % . & % % ! :.w.z.x.x.x.x.x.<.s.. . . . . . . . & . X u.x.x.x.x.u.8.I . & % . . . . % . % ! <.t.x.x.x.x.",
"U 1 . . & & & & & . . . . . . & & . . % % % % % c.) >.w.x.x.9.T % % . . . . . & & . . . > <.x.x.x.r.X.) . . & % . . . . & % . % W -.w.x.x.x.",
"1 & . & . & & & & . . . . . & & & & . . . % % & % % B  .<.` % % % & % . . . & & & & . . . P z.x.e.| s . . . & & . % . & % . . . % D } 4.r.x.",
"& & & & & . . & . . . . . . . & . & . & & % & % % % , f u % % % & & & % . . & & & & . . & < ,.9.! 0 % & . . & . & % % % . . & % & % % K } <."
};
