/* XPM */
static char *result[] = {
/* columns rows colors chars-per-pixel */
"70 70 56 1 ",
"  c #80BF1D",
". c #80BD1E",
"X c #80BD1F",
"o c #80BE1E",
"O c #80BF1E",
"+ c #80BE1F",
"@ c #80BF1F",
"# c #81BF1F",
"$ c #81BF20",
"% c #81C21B",
"& c #81C31B",
"* c #82C31B",
"= c #82C41B",
"- c #81C01C",
"; c #80C11C",
": c #81C11C",
"> c #80C01D",
", c #81C01D",
"< c #80C11D",
"1 c #81C11D",
"2 c #81C21C",
"3 c #81C31C",
"4 c #82C31C",
"5 c #80C01E",
"6 c #81C01E",
"7 c #82C020",
"8 c #82C120",
"9 c #82C021",
"0 c #82C121",
"q c #83C121",
"w c #83C221",
"e c #83C222",
"r c #84C222",
"t c #84C322",
"y c #85C323",
"u c #84C422",
"i c #85C423",
"p c #85C523",
"a c #86C523",
"s c #86C524",
"d c #87C524",
"f c #86C624",
"g c #87C624",
"h c #87C724",
"j c #87C725",
"k c #88C725",
"l c #88C825",
"z c #89C826",
"x c #89C926",
"c c #8AC926",
"v c #8ACA26",
"b c #8BCB26",
"n c #8ACA27",
"m c #8BCA27",
"M c #8BCB27",
"N c None",
/* pixels */
"NNNNNNNNNbMMMMMMMMMMMMMMMMMMMMMMMMMMMMMMMMMMMMMMMMMMMMMbMMMMvvNNNNNNNN",
"NNNNNNnMMMMMMMMMMMMMMMMMMMMMMMMMMMMMMMMMMMMMMMMMMMMMMMMMMMMMMMMMNNNNNN",
"NNNNNMMMMMMMMMMMMMMMMMMMMMMMMMMMMMMMMMMMMMMMMMMMMMMMMMMMMMMMMMMMbNNNNN",
"NNNvMMMMmnnnnvvvvvvvvvvvvvvvvvvvvvvvvvvvvvvvvvvvvvvvvvvvvnnnnmMMMbNNNN",
"NNnMMMnkgpttte000000000000000000000000000000000000000000etttidzvMMbNNN",
"NNMMckiwq7$$$@++++++++++++++++++++++++++++++++++++++++X+@$$$$9rplMMbNN",
"Nbbvsq+++++++++++++++++++++++++++++++++++++++++++++++++++++++++$tkvnNN",
"NMvf7+++++++++++++++++++++++++++++++++++++++++++++++oOOOOO+++++++0jvMN",
"Mxs7+++++++++++++++++++++++++++++++++++++++++++++++o;23332,+++++++0kMN",
"Mgq++++++++++++++++++++++++++++++++++++++++++++++++ &=====2O+++++++ylN",
"ni++++++++++++++++++++++++++++++++++++++++++++++++O:*======<O++++++9iv",
"hw++++++++++++++++++++++++++++++++++++++++++++++++6*=======2O+++++++wl",
"u7++++++++++++++++++++++++++++++++++++++++++++++++6========25+++++++7a",
"8$++++++++++++++++++++++++++++++++++++++++++++++++5*=======2O+++++++$w",
"++++++++++++++++++++++++++++++++++++++++++++++++++O2*=====*>O+++++++#7",
"+++++++++++++++++++++++++++++++++++++++++++++++++++>2=====% ++++++++++",
"+++++++++++++++++++++++++++++++++++++++++++++++++++o>:442:>o++++++++++",
"+++++++++++++++++++++++++++++++++++++++++++++++++++++O66>O++++++++++++",
"++++++++++++++++++++++++++++++++++++++++++++++++++++++++++++++++++++++",
"++++++++++++++++++++++++++++++++++++++++++++++++++++++++++++++++++++++",
"++++++++++++++++++++++++++++++++++++++++++++++++++++++++++++++++++++++",
"++++++++++++++++++++++++++++++++++++++++++++++++++++++++++++++++++++++",
"++++++++++++++++++++++++++++++++++++++++++++++++++++++++++++++++++++++",
"++++++++++++++++++++++++++++++++++++++++++++++++++++++++++++++++++++++",
"++++++++++++++++++++++++++++++++++++++++++++++++++++++++++++++++++++++",
"++++++++++++++++++++++++++++++++++++++++++++++++++++++++++++++++++++++",
"++++++++++++++++++++++++++++++++++++++++++++++++++++++++++++++++++++++",
"+++++++++++++++++++++++++++++++O,1111,O+++++++++++++++++++++++++++++++",
"++++++++++++++++++++++++++++++o-&====&:O++++++++++++++++++++++++++++++",
"++++++++++++++++++++++++++++++,%======&:++++++++++++++++++++++++++++++",
"+++++++++++++++++++++++++++++O2========2>+++++++++++++++++++++++++++++",
"+++++++++++++++++++++++++++++,*========*1@++++++++++++++++++++++++++++",
"++++++++++++++++++++++++++++@1*========*1@++++++++++++++++++++++++++++",
"++++++++++++++++++++++++++++@14========41@++++++++++++++++++++++++++++",
"+++++++++++++++++++++++++++++54========45+++++++++++++++++++++++++++++",
"+++++++++++++oOOOOo++++++++++O2========2O+++++++++++++++++++++++++++++",
"++++++++++++o>2222>o++++++++++,2======31++++++++++++++++++++++++++++++",
"++++++++++++>2===*%>+++++++++++O:2222:>o++++++++++++++++++++++++++++++",
"++++++++++++1======1O+++++++++++O5555Oo+++++++++++++++++++++++++++++++",
"++++++++++++2======2O+++++++++++++++++++++++++++++++++++++++++++++++++",
"++++++++++++1&=====:O+++++++++++++++++++++++++++++++++++++++++++++++++",
"++++++++++++>2&===2O++++++++++++++++++++++++++++++++++++++++++++++++++",
"++++++++++++O>:221,+++++++++++++++++++++++++++++++++++++++++++++++++++",
"++++++++++++++oOOO++++++++++++++++++++++++++++++++++++++++++++++++++++",
"++++++++++++++++++++++++++++++++++++++++++++++++++++++++++++++++++++++",
"++++++++++++++++++++++++++++++++++++++++++++++++++++++++++++++++++++++",
"++++++++++++++++++++++++++++++++++++++++++++++++++++++++++++++++++++++",
"++++++++++++++++++++++++++++++++++++++++++++++++++++++++++++++++++++++",
"++++++++++++++++++++++++++++++++++++++++++++++++++++++++++++++++++++++",
"++++++++++++++++++++++++++++++++++++++++++++++++++++++++++++++++++++++",
"++++++++++++++++++++++++++++++++++++++++++++++++++++++++++++++++++++++",
"++++++++++++++++++++++++++++++++++++++++++++++++++++++++++++++++++++++",
"++++++++++++++++++++++++++++++++oOOOO+++++++++++++++++++++++++++++++++",
"++++++++++++++++++++++++++++++O,11111,O+++++++++++++++++++++++++++++++",
"++++++++++++++++++++++++++++++14=====3,+++++++++++++++++++++++++++++++",
"+++++++++++++++++++++++++++++o2=======2O++++++++++++++++++++++++++++++",
"+++++++++++++++++++++++++++++,4=======3>++++++++++++++++++++++++++++++",
"++++++++++++++++++++++++++++@1*=======*1++++++++++++++++++++++++++++++",
"++++++++++++++++++++++++++++@14=======31++++++++++++++++++++++++++++++",
"+++++++++++++++++++++++++++++O4=======3,+++++++++++++++++++++++++++++.",
".++++++++++++++++++++++++++++O2=======:O+++++++++++++++++++++++++++++N",
"N+++++++++++++++++++++++++++++>2&*==*2 ++++++++++++++++++++++++++++++N",
"N+++++++++++++++++++++++++++++oO>222:O+++++++++++++++++++++++++++++++N",
"N++++++++++++++++++++++++++++++++OOOO+++++++++++++++++++++++++++++++NN",
"NN+++++++++++++++++++++++++++++++++++++++++++++++++++++++++++++++++.NN",
"NNN++++++++++++++++++++++++++++++++++++++++++++++++++++++++++++++++NNN",
"NNNN++++++++++++++++++++++++++++++++++++++++++++++++++++++++++++++NNNN",
"NNNNN+++++++++++++++++++++++++++++++++++++++++++++++++++++++++++.NNNNN",
"NNNNNN+++++++++++++++++++++++++++++++++++++++++++++++++++++++++NNNNNNN",
"NNNNNNNNN.+++++++++++++++++++++++++++++++++++++++++++++++++.NNNNNNNNNN"
};
