/* XPM */
static char *_21707de93ce4c849ae650d8ed0178c21rh33nCiFjMM14Dd[] = {
/* columns rows colors chars-per-pixel */
"51 51 46 1 ",
"  c None",
". c #5F8C19",
"X c #618F19",
"o c #639219",
"O c #65951A",
"+ c #67981A",
"@ c #699B1A",
"# c #6B9E1B",
"$ c #6DA11B",
"% c #6FA51C",
"& c #71A81C",
"* c #73AB1C",
"= c #75AE1D",
"- c #77B11D",
"; c #79B41D",
": c #7BB71E",
"> c #7DBA1E",
", c #80BF1D",
"< c #80BD1E",
"1 c #80BE1E",
"2 c #80BF1E",
"3 c #80BE1F",
"4 c #81BF20",
"5 c #81C21B",
"6 c #81C31B",
"7 c #82C41B",
"8 c #81C11C",
"9 c #80C01D",
"0 c #81C11D",
"q c #81C21C",
"w c #82C020",
"e c #82C121",
"r c #83C221",
"t c #84C321",
"y c #84C222",
"u c #85C423",
"i c #86C624",
"p c #87C624",
"a c #88C725",
"s c #88C825",
"d c #8BCB25",
"f c #89C926",
"g c #8ACA26",
"h c #8BCB26",
"j c #8ACA27",
"k c #8BCB27",
/* pixels */
"      gkkkkkkkkkkkkkkkkkkkkkkkkkkkkkkkkkhkkkg      ",
"    kkkkhhkkkkkkkkkkkkkkkkkkkkkkkkkkkkkkkkkkkkk    ",
"  gkkgkkhhkkkgkgkgkkgkkgkgkgkgkkgkkhkkkhkkkkkkkg   ",
"  gkkpuryy33434343343343434343344<434>434r4ryaggg  ",
" kgar33333333333333333333333333333333333>43333rgkg ",
" kp3>4333333333333333333333333333333333334333333gk ",
"kp3333333339333333333333333333333333333333333333>g ",
"gr33333333396969333333333333333333333333333333334yg",
"p9443333336777776333333333333333333333333333333333g",
"r>r>3333337777776333333333333333333333333333333333r",
"33>93333367777777333333397779333333333333333333333r",
"33443333397777777333333367777933333333333333333333>",
"333333333977777773333337777777933333333333333333333",
"333333333367777763333339777777333333333333333333333",
"333333333396777933333339777779333333333333333333333",
"333333333333333333333333677779333333333333333333333",
"333333333333333333,69333399q33333333333333333333333",
"333333333333333333676333333333333333333333333333333",
"333333333333333333,693333333333333>4333333333333333",
"33333333333333333:&=3333333333*@=34<333333333333333",
"3333333333334>=#oX..;33333333=XX.X#;333333333333333",
"3333333333;&O.X..X..#33333333+....X.o&:333333333333",
"3333333334oX........+3333333>.......X..#33333333333",
"333333333>..........+3333333<.........X+33333333333",
"3333333333o.........#33333333oXX.......@33333333333",
"3333333333*X.......X;33333333*........X-33333333333",
"33333333333#......X@>43333334<@X.....X@333333333333",
"333333333333*....X*333333333>44&...X.&3333333333333",
"3333333333333>;==>334>4333344333>;-->33333333333333",
"33333333333333334333>%@+++O@*3333333333333333333333",
"3333333333333333333%...XX.X..X:33333333333333333333",
"333333333333333333#.Xo*=;=;#XXX;3333333333333333333",
"33333333333333333=XXO3333333>oXX<333333333333333333",
"33333333333333333+.o>33333333:X.=333333333333333333",
"33333333333333333*+;3333333333&+;333333333333333333",
"333333333333333333333333333333333333333333333333333",
"333333333333333333333333333333333333333996633333333",
"333333333333333333333333333333333333336777763333333",
"333333333333333333333333333333333333397777776333333",
"333333333333333333333333333333333333397777776333333",
"333333333333333333333333333333336776367777776333333",
"333333333333333333333333333333367777,36777773333333",
"33333333333333333333333333333339777763,677773333333",
"333333333333333333333333333333367777633333333333333",
"33333333333333333333333333333333377733333333333333 ",
" 3333333333333333333333333333333333333333333333333 ",
" 3333333333333333333333333333333333333333333333333 ",
"  33333333333333333333333333333333333333333333333  ",
"   333333333333333333333333333333333333333333333   ",
"    3333333333333333333333333333333333333333333    ",
"      3333333333333333333333333333333333333<       "
};
