/* XPM */
static char *_ba16dcd2ec34124c4939a6a5d757a8aiMWpEsQFrUkKW81T[] = {
/* columns rows colors chars-per-pixel */
"70 70 156 2 ",
"   c None",
".  c #5E8A19",
"X  c #5E8B19",
"o  c #5F8B19",
"O  c #5F8C19",
"+  c #5F8D19",
"@  c #608D19",
"#  c #608E19",
"$  c #618E19",
"%  c #618F19",
"&  c #619019",
"*  c #629019",
"=  c #629119",
"-  c #639119",
";  c #639219",
":  c #639319",
">  c #62911A",
",  c #63911A",
"<  c #63921A",
"1  c #63931A",
"2  c #64931A",
"3  c #649419",
"4  c #64941A",
"5  c #65951A",
"6  c #65961A",
"7  c #66961A",
"8  c #66971A",
"9  c #67981A",
"0  c #68991A",
"q  c #689A1A",
"w  c #699A1A",
"e  c #699B1A",
"r  c #699B1B",
"t  c #699C1A",
"y  c #699C1B",
"u  c #6B9D1A",
"i  c #6A9C1B",
"p  c #6A9D1B",
"a  c #6A9E1B",
"s  c #6B9E1B",
"d  c #6C9F1B",
"f  c #6BA01B",
"g  c #6CA01B",
"h  c #6CA11B",
"j  c #6DA11B",
"k  c #6DA21B",
"l  c #6EA21B",
"z  c #6EA31B",
"x  c #6FA41B",
"c  c #6EA31C",
"v  c #6FA41C",
"b  c #6FA51C",
"n  c #70A51C",
"m  c #70A61C",
"M  c #71A61C",
"N  c #70A71C",
"B  c #71A71C",
"V  c #71A81C",
"C  c #72A81C",
"Z  c #72A91C",
"A  c #72AA1C",
"S  c #73AA1C",
"D  c #73AB1C",
"F  c #73AB1D",
"G  c #74AC1C",
"H  c #74AD1C",
"J  c #75AD1C",
"K  c #74AC1D",
"L  c #75AD1D",
"P  c #75AE1C",
"I  c #75AE1D",
"U  c #76AE1D",
"Y  c #76AF1D",
"T  c #76B01D",
"R  c #77B01D",
"E  c #77B11D",
"W  c #78B11D",
"Q  c #78B21D",
"!  c #78B31D",
"~  c #78B31E",
"^  c #79B31E",
"/  c #79B41D",
"(  c #79B41E",
")  c #7AB41E",
"_  c #7AB51E",
"`  c #7AB61E",
"'  c #7BB61E",
"]  c #7BB71E",
"[  c #7CB81E",
"{  c #7CB91E",
"}  c #7DB91E",
"|  c #7DBA1E",
" . c #7DBA1F",
".. c #7EBB1E",
"X. c #7EBA1F",
"o. c #7EBB1F",
"O. c #7EBC1E",
"+. c #7FBC1E",
"@. c #7EBC1F",
"#. c #7FBC1F",
"$. c #7FBD1F",
"%. c #80BF1D",
"&. c #81BF1D",
"*. c #80BD1E",
"=. c #80BD1F",
"-. c #80BE1E",
";. c #80BF1E",
":. c #80BE1F",
">. c #80BF1F",
",. c #81BF1F",
"<. c #81BF20",
"1. c #81C31B",
"2. c #82C31B",
"3. c #82C41B",
"4. c #80C11C",
"5. c #81C11C",
"6. c #80C01D",
"7. c #81C01D",
"8. c #80C11D",
"9. c #81C11D",
"0. c #81C21C",
"q. c #81C31C",
"w. c #82C31C",
"e. c #80C01E",
"r. c #81C01E",
"t. c #81C01F",
"y. c #82C020",
"u. c #82C120",
"i. c #82C021",
"p. c #82C121",
"a. c #83C121",
"s. c #83C221",
"d. c #83C222",
"f. c #84C222",
"g. c #84C322",
"h. c #85C323",
"j. c #84C422",
"k. c #85C423",
"l. c #85C523",
"z. c #86C523",
"x. c #86C524",
"c. c #87C524",
"v. c #86C624",
"b. c #87C624",
"n. c #87C724",
"m. c #87C725",
"M. c #88C725",
"N. c #88C825",
"B. c #89C826",
"V. c #89C926",
"C. c #8AC926",
"Z. c #8ACA26",
"A. c #8BCB26",
"S. c #8ACA27",
"D. c #8BCA27",
"F. c #8BCB27",
/* pixels */
"                  Z.F.F.F.F.F.F.F.F.F.F.F.F.F.F.F.F.F.F.F.F.F.F.F.F.F.F.F.F.F.F.F.F.F.F.F.F.F.F.F.F.F.F.F.F.F.F.F.F.S.S.F.F.                ",
"            F.F.F.F.F.F.F.F.F.F.F.F.F.F.F.F.F.F.F.F.F.F.F.F.F.F.F.F.F.F.F.F.F.F.F.F.F.F.F.F.F.F.F.F.F.F.F.F.F.F.F.F.S.S.F.F.F.F.            ",
"          F.F.F.F.F.F.F.F.F.F.F.F.F.F.F.F.F.F.F.F.F.F.F.F.F.F.F.F.F.F.F.F.F.F.F.F.F.F.F.F.F.F.F.F.F.F.F.F.F.F.F.F.F.F.S.F.F.F.F.F.          ",
"      Z.F.F.F.Z.F.F.F.F.F.Z.Z.Z.Z.Z.Z.Z.Z.Z.Z.Z.Z.Z.Z.Z.Z.Z.Z.Z.Z.Z.Z.Z.Z.Z.Z.Z.Z.Z.Z.F.Z.Z.Z.Z.Z.Z.Z.Z.Z.Z.Z.V.Z.Z.Z.Z.F.F.F.F.F.F.        ",
"    Z.F.F.F.Z.v.v.v.a.j.a.a.a.a.a.a.a.a.a.a.a.g.a.a.a.a.>.a.a.a.a.a.a.a.a.a.a.a.a.a.a.a.a.a.a.a.a.>.a.a.a.a.a.a.a.a.j.a.n.v.Z.Z.S.F.F.      ",
"    F.Z.Z.Z.n.j.a.e.a.a.<.$.$.$.<.e.$.$.4.=.=.=.4.$.a.$.>.$.e.$.4.$.$.e.$.$.$.4.=.=.4.$.4.$.$.$.>.$.$.$.4.$.a.$.a.<.<.a.$.a.a.n.v.F.F.F.    ",
"  F.F.Z.h.a.=.=.$.=.=.=.$.a.$.a.=.=.=.=.$.<.e.=.$.>.$.$.$.>.$.$.$.$.$.$.$.$.$.$.<.$.<.$.$.$.e.<.$.a.$.a.$.>.$.$.$.$.=.e.=.=.$.<.a.Z.Z.F.    ",
"  Z.Z.n.<.<.=.=.=.=.e.$.$.$.$.$.$.<.e.$.<.$.=.=.$.$.a.$.>.$.a.$.$.<.$.a.$.a.$.>.e.=.$.<.$.<.=.=.>.$.$.$.$.$.a.$.$.>.=.e.=.=.$.$.<.a.v.Z.Z.  ",
"F.v.n.a.<.e.$.<.e.<.=.e.<.=.e.<.=.=.e.=.=.e.=.e.=.$.=.=.$.<.=.$.<.$.=.e.=.e.<.=.e.=.=.e.$.=.=.$.=.=.e.=.=.$.=.=.a.$.$.=.=.$.=.=.e.<.a.v.Z.  ",
"F.n.a.<.$.=.=.e.=.$.=.$.$.=.=.$.e.e.e.e.=.e.=.e.=.<.e.$.=.e.=.<.$.<.$.<.=.=.=.=.<.=.=.<.<.e.e.<.e.$.<.=.=.<.e.$.$.$.<.e.e.<.<.e.=.=.$.n.Z.  ",
"F.h.=.e.=.=.=.=.=.$.=.<.=.=.e.1.1.e.1.e.1.e.e.=.e.<.e.<.=.e.=.e.=.=.=.=.e.<.<.e.=.=.=.=.=.=.=.=.<.$.<.$.e.<.e.<.e.e.<.=.=.$.$.=.<.$.$.a.g.Z.",
"v.a.=.$.<.e.$.<.e.<.=.e.e.e.e.3.3.3.3.3.3.w.e.=.=.$.=.=.$.<.=.$.e.$.<.e.=.=.=.=.e.=.<.e.$.<.e.$.=.=.e.=.=.$.=.=.=.=.$.=.=.<.e.=.e.=.=.$.a.V.",
"n.a.$.$.e.<.=.e.=.=.e.=.e.e.1.3.3.3.3.3.3.1.1.1.=.=.e.<.<.$.=.<.<.$.=.=.=.e.=.=.<.$.=.e.<.$.e.<.e.=.=.e.$.=.=.$.<.e.$.<.e.=.=.e.<.$.=.<.e.n.",
"e.<.=.=.=.=.=.=.e.=.<.=.e.1.3.3.3.3.3.3.3.1.1.e.e.=.=.$.e.=.=.e.=.e.e.e.e.e.e.e.=.=.=.=.=.=.=.=.<.$.$.<.<.e.e.<.$.=.=.e.<.$.$.<.e.=.=.e.a.a.",
"e.=.=.e.<.=.=.<.<.=.=.e.e.e.3.3.3.3.3.3.3.3.3.e.e.=.=.e.$.=.=.e.e.e.3.3.3.3.3.e.e.=.=.<.e.=.=.$.=.=.=.=.=.=.=.=.=.=.=.=.=.=.=.=.$.=.=.e.=.a.",
"<.=.$.<.e.=.=.e.=.=.=.=.1.1.3.3.3.3.3.3.3.3.3.e.e.=.$.<.<.e.=.=.e.1.3.3.3.3.3.w.e.e.=.e.<.$.e.<.e.$.<.e.$.<.e.$.<.e.$.<.e.$.<.e.<.e.=.=.=.$.",
"$.=.<.$.=.<.$.=.=.=.e.=.e.3.3.3.3.3.3.3.3.3.3.e.=.=.e.=.=.e.=.e.1.3.3.3.3.3.3.3.e.e.=.$.<.e.$.<.<.=.e.<.=.e.<.=.e.<.=.e.<.=.e.<.e.<.$.e.<.$.",
"e.=.e.=.=.e.e.=.$.<.<.$.e.e.3.3.3.3.3.3.3.3.1.1.e.=.<.$.$.<.=.e.e.3.3.3.3.3.3.3.3.e.=.<.$.=.=.e.$.=.=.$.=.$.$.=.=.$.=.$.$.=.=.$.=.=.=.=.=.=.",
"<.=.e.=.$.<.<.$.=.e.e.=.=.1.1.1.3.3.3.3.3.3.1.=.$.=.=.$.=.<.$.e.1.2.3.3.3.3.3.3.3.e.=.e.=.=.=.=.e.=.=.e.e.<.<.e.=.$.=.<.e.=.=.e.<.$.$.<.e.=.",
"$.=.<.$.=.e.=.=.=.$.<.=.=.e.e.1.3.3.3.3.1.1.=.=.<.e.=.<.=.e.=.e.1.3.3.3.3.3.3.3.3.e.=.$.<.e.$.<.<.=.$.<.=.=.$.=.e.<.=.e.<.=.$.<.e.=.=.e.<.$.",
"e.=.<.e.=.$.=.=.$.=.=.$.<.e.e.e.e.e.e.e.1.=.=.e.=.=.=.e.=.=.=.=.=.1.3.3.3.3.3.1.e.e.=.=.e.<.$.e.$.=.<.$.=.=.$.=.=.$.=.=.$.e.<.$.=.e.<.=.=.$.",
"<.=.$.=.e.<.<.e.<.e.e.<.$.=.=.=.e.e.=.<.=.=.=.=.=.=.e.=.e.e.=.<.=.1.1.2.3.3.3.1.e.=.=.e.=.=.=.=.e.=.e.=.<.e.<.e.=.<.e.$.=.=.=.=.=.$.$.=.=.<.",
"$.=.$.=.=.$.$.=.=.=.=.=.=.=.<.$.=.=.=.e.e.=.e.=.e.1.1.4.e.<.=.e.e.=.e.1.e.e.e.e.=.<.=.e.<.$.=.<.<.=.e.=.$.e.<.=.e.<.e.<.<.e.e.<.e.<.<.e.e.<.",
"e.=.<.e.=.<.e.=.$.<.e.$.<.e.e.=.=.e.=.=.<.=.e.=.=.e.1.3.e.$.=.e.=.=.=.=.e.e.=.=.=.e.=.=.e.=.=.e.$.=.<.$.=.=.$.=.=.$.=.=.$.=.=.$.=.=.$.=.=.$.",
"<.=.e.<.=.e.<.=.e.=.=.e.e.<.$.=.e.=.=.=.$.=.=.$.e.1.3.1.e.=.=.=.=.e.=.=.=.=.=.=.$.=.=.$.=.=.=.=.<.$.4.=.e.=.=.=.=.e.=.=.e.=.=.e.$.=.=.$.=.=.",
"$.=.=.$.=.$.$.=.<.$.$.<.=.=.=.$.=.=.<.e.<.$.e.<.=.e.1.e.e.<.e.=.=.=.<.e.e.<.<.e.<.e.e.<.<.e.=.=.$.$.$.$.$.$.=.=.$.<.$.<.<.$.$.<.<.e.e.<.<.e.",
"e.=.=.e.e.<.<.e.=.=.=.=.=.=.$.T P Q ..=.$.<.$.<.e.=.=.e.=.e.e.=.e.e.<.=.=.$.=.=.=.=.=.$.$.=.=.<.<.] F x F ] <.=.=.<.$.e.=.=.=.=.=.=.=.=.$.e.",
"<.=.$.<.=.=.$.=.e.$.<.e.=.$.Q d 8 r l B P T ..$.a.=.e.=.=.$.<.=.=.=.=.=.=.<.e.=.=.=.=.<.e.$.] P B c 9 : 9 V ..<.=.e.=.=.e.$.<.e.$.<.e.$.=.=.",
"$.=.<.$.=.=.$.=.<.$.e.<.=.] c & o o o @ 9 f V P Q ] ....$.<.<.$.$.<.=.$.e.=.=.e.<.$.....] P x 9 @ O o O o r ] o.$.<.=.$.<.=.e.<.<.$.=.<.e.=.",
"e.=.e.=.<.e.<.e.=.=.=.=.=.Q 8 @ O o O O O O @ & 8 d V T ..$.e.=.=.e.=.<.<.$.$.<.o.] P v 8 & @ O o O O O @ 8 B ..e.e.=.<.$.=.=.$.e.=.=.e.<.=.",
"<.=.e.=.$.e.<.=.e.=.=.$.e.P & O O O O O O O O O @ @ 2 s V $.<.=.=.e.=.e.=.$.e...B r 8 & o o o O O O O O O & c o.<.=.=.e.e.=.=.e.$.=.=.$.$.=.",
"$.=.<.$.=.=.$.=.<.$.e.<.a.P @ o O O O O O O O O o o o & v $.=.=.$.<.=.=.=.<.<.Q 8 o o o O O O O O O O O O & d o.e.=.=.$.<.=.$.<.<.e.=.<.e.=.",
"=.$.=.=.$.<.=.$.=.=.e.=.a.P & O O O O O O O O O O O @ & l ..e.=.=.=.$.=.=.$.e.T @ O O O O O O O O O O O O & c o.<.=.e.<.$.e.<.$.=.e.<.=.e.<.",
"=.<.e.$.=.e.=.<.e.$.<.=.e.Q & O O O O O O O O O O O O 8 V $.a.$.<.e.<.e.e.<.a.Q 8 @ O O O O O O O O O O O 2 v ..e.=.=.=.=.=.=.=.=.$.$.=.=.$.",
"e.<.e.<.=.e.=.e.<.$.=.=.<.] y & o O O O O O O O O O o y ] $.e.<.$.e.<.=.=.=.e.] y & o O O O O O O O O O o 9 P $.<.=.=.$.<.e.e.<.e.<.<.e.=.$.",
"=.$.=.=.$.<.=.$.=.=.$.$.$...F : O O O O O O O O o O 8 V ..$.=.=.=.=.$.=.e.=.$...F 8 O O O O O O O O O O @ c ..=.$.=.e.<.$.=.=.$.=.=.$.=.e.<.",
"=.$.=.=.<.$.=.<.e.=.=.e.=.=.] f & @ @ O O O O O @ 2 B ] =.=.=.$.=.<.=.=.<.=.e.<...l & & O O O O O O O & y T <.$.=.=.e.=.=.<.$.=.=.=.e.=.$.<.",
"e.<.<.e.e.=.=.e.<.$.$.<.=.$.$...V 8 O o O O O O 9 P ..$.=.=.e.<.=.e.=.<.$.=.=.$.$...P y O o O O O O 9 V ] $.e.=.e.$.<.=.=.e.e.=.$.<.<.$.=.e.",
"=.$.$.=.$.=.=.$.=.=.=.=.e.<.<.e.] P v c l s f v P ..$.<.<.=.=.=.e.a.=.e.=.=.e.a.=.e.$.Q V l s f c l V ..$.e.<.=.<.$.<.$.$.<.<.$.=.e.e.=.=.e.",
"=.<.e.=.<.e.=.<.e.$.<.e.=.=.=.=.<.$...] Q ] ] $.a.=.=.$.....] ] T ] T ] ] ] ] ..=.=.$.$.$.] ] ] ] ] =.=.<.$.$.=.=.=.e.=.=.e.=.=.=.$.<.=.$.<.",
"e.<.=.e.<.=.e.<.<.$.=.<.$.=.<.$.$.=.=.=.=.$.=.=.<.$.$...T v y s r r 9 r s s x P o.$.<.$.<.$.=.=.<.e.$.<.e.=.<.e.e.<.=.e.<.=.e.<.<.$.=.<.$.=.",
"=.$.=.$.$.=.=.$.e.=.=.e.e.=.e.=.=.=.=.$.e.<.=.=.$.$.T l 9 & @ @ O @ @ o O @ & 8 y Q $.=.e.=.=.=.$.=.=.e.<.=.$.=.=.$.=.$.$.=.=.$.e.=.=.e.e.=.",
"=.$.=.<.e.=.=.e.$.=.=.$.<.=.e.=.=.$.=.<.=.=.e.a...P s & o & 8 r s r s r 9 8 & O O s T $.=.=.e.=.=.=.=.=.$.=.$.=.=.$.=.<.e.=.=.e.$.=.=.$.<.=.",
"e.<.=.e.<.=.$.<.<.e.=.<.$.=.<.$.e.<.=.e.e.=.$.$.T r @ O & y V ] ! ! ] Q ] V f 8 O O s T $.$.<.=.e.=.$.<.e.=.<.e.e.<.=.e.<.=.$.<.<.e.=.<.$.=.",
"=.$.=.=.$.e.<.$.e.<.$.e.=.=.e.=.=.$.=.=.=.<.$.] c @ @ & l ..$.$.$.$.$.$.$.$...F : @ O s ] =.=.e.<.=.e.<.=.e.<.=.=.$.=.=.$.e.<.$.e.<.$.e.=.=.",
"=.<.e.$.=.=.=.=.=.=.=.=.e.$.<.=.=.<.e.$.=.e.e.V 8 O @ l T =.=.<.=.$.e.=.=.$.$...A 8 o : T $.=.e.$.=.=.$.=.$.$.=.=.<.e.$.=.=.=.=.=.=.=.=.e.$.",
"e.<.e.<.<.e.e.<.<.$.$.<.<.$.<.$.e.<.e.<.=.=.<.V 8 & s T =.=.=.e.=.e.=.=.=.=.e.=.] l & 8 P ..$.=.e.=.=.e.e.<.<.e.e.<.e.<.<.e.e.<.<.$.$.<.<.$.",
"=.$.=.=.$.=.=.$.e.=.=.e.=.=.e.=.=.$.=.=.e.=.=.] B s T ..<.e.=.$.=.=.=.e.e.=.<.$.$.T l l ] ..$.=.<.=.$.<.=.=.$.=.=.$.=.=.$.=.=.$.e.=.=.e.=.=.",
"=.$.=.=.$.=.=.$.=.=.$.=.=.$.=.=.$.=.=.$.=.=.$.$.....o.$.<.$.=.<.<.e.$.<.e.=.<.e.<.......<.e.=.<.$.e.<.$.e.=.=.=.=.=.=.=.=.=.e.=.=.=.e.=.=.e.",
"e.<.<.e.<.e.e.<.<.e.<.e.e.<.<.e.<.e.e.<.<.e.<.e.=.e.$.<.e.=.=.e.$.=.=.e.<.=.$.=.$.$.<.e.=.=.=.e.=.=.=.=.=.=.e.2.w.e.e.=.e.=.e.=.$.<.<.$.$.<.",
"=.$.$.=.=.=.=.=.$.e.<.=.=.$.$.=.=.=.=.=.$.e.<.=.$.<.=.=.$.=.=.$.=.=.=.=.$.=.$.=.=.=.=.=.=.=.=.=.<.e.e.<.=.1.1.1.1.e.3.1.e.=.=.=.=.e.e.=.=.<.",
"=.<.e.=.$.<.e.$.=.=.$.=.=.<.e.=.$.<.e.$.=.=.$.=.=.e.=.=.<.e.=.<.<.e.$.<.e.=.<.e.=.=.<.e.=.=.e.=.$.=.=.$.e.2.3.3.3.3.3.3.e.=.<.e.=.$.<.=.=.e.",
"e.<.=.e.<.$.e.<.<.e.$.<.e.=.=.e.<.$.=.<.e.=.<.e.=.e.=.=.e.<.=.e.$.e.<.$.=.e.<.=.e.=.=.e.=.e.=.=.=.=.e.e.3.3.3.3.3.3.3.3.1.=.=.e.$.=.=.$.<.e.",
"=.$.=.$.=.=.=.=.$.=.=.e.<.$.$.<.e.=.=.e.<.=.$.=.$.<.$.<.=.$.=.$.=.=.=.=.=.$.$.=.<.$.$.<.=.=.=.e.<.e.e.e.1.3.3.3.3.3.3.3.1.e.=.=.<.e.e.<.$.=.",
"=.$.=.<.e.=.=.$.=.=.=.=.=.=.=.=.$.=.=.$.$.=.$.=.=.<.$.e.=.$.=.<.<.e.e.<.e.<.<.e.$.<.=.=.=.e.e.=.$.e.e.e.1.3.3.3.3.3.3.3.3.e.e.=.=.=.=.=.=.=.",
"e.<.=.e.<.$.e.<.<.e.$.<.e.$.<.e.<.e.=.<.e.=.<.e.=.e.=.=.e.<.=.e.$.=.=.$.=.=.$.=.=.e.=.e.1.3.3.3.e.e.=.e.2.3.3.3.3.3.3.3.3.e.e.=.$.<.e.$.<.e.",
"=.$.=.=.$.<.=.$.$.=.<.$.=.<.$.=.=.=.e.=.=.e.=.=.=.=.e.=.=.$.=.=.=.=.$.=.=.$.=.=.=.=.e.2.3.3.3.3.3.1.1.e.e.3.3.3.3.3.3.3.e.e.=.e.=.e.<.=.e.<.",
"=.<.e.$.=.e.=.<.e.=.e.=.=.e.e.=.$.<.<.$.$.<.$.<.e.$.<.=.=.<.e.$.<.e.<.e.e.<.<.e.e.=.e.e.3.3.3.3.3.3.=.=.1.1.3.3.3.3.3.2.e.=.=.=.=.$.$.=.=.$.",
"e.<.e.<.=.e.=.e.<.=.e.=.$.<.<.$.=.e.e.=.=.<.$.e.<.$.<.$.e.<.e.<.$.e.<.=.=.$.$.=.e.=.e.e.3.3.3.3.3.1.e.e.$.1.3.3.3.2.2.1.e.=.e.=.e.<.<.e.=.=.",
"=.$.=.=.$.<.=.$.$.=.<.$.=.e.=.=.=.$.<.=.=.e.=.=.=.=.e.=.=.$.=.=.=.=.$.=.=.<.e.=.=.=.e.1.3.3.3.3.3.1.e.=.=.$.e.e.e.e.e.=.=.=.e.=.=.=.$.=.e.=.",
"=.e.=.=.<.$.=.<.e.=.<.e.=.$.=.=.$.=.=.$.<.e.$.<.e.=.=.e.$.=.=.$.<.e.$.<.e.=.=.e.<.=.=.e.w.3.3.3.e.e.e.=.=.e.<.=.=.=.=.=.e.e.<.=.=.=.e.=.e.  ",
"  =.<.e.e.=.=.e.<.=.$.=.e.<.<.e.<.e.e.<.$.=.=.e.<.$.$.<.<.e.e.<.$.=.=.e.<.$.$.<.e.=.=.e.e.w.e.w.e.e.e.=.=.$.$.=.=.<.e.=.=.=.=.=.$.<.<.$.<.  ",
"  $.$.=.$.=.=.$.$.=.$.=.=.$.$.=.=.=.=.=.=.=.=.=.=.=.=.=.=.=.=.=.=.=.=.=.=.=.=.=.=.=.=.e.=.=.=.e.=.e.=.=.e.<.<.e.e.<.e.<.<.e.e.<.=.e.e.=.$.  ",
"  <.e.=.<.e.=.<.e.=.<.e.=.<.e.=.$.<.e.$.<.e.$.<.e.$.<.e.$.<.e.$.<.e.$.<.e.$.<.e.<.e.=.=.=.e.=.e.=.=.=.e.=.=.$.=.=.=.=.=.=.=.=.=.=.$.<.=.    ",
"    =.e.<.=.e.<.=.e.<.=.e.<.=.e.<.=.e.<.=.=.e.=.=.e.=.=.e.=.=.e.=.=.e.=.=.e.=.=.e.=.=.e.$.=.=.$.=.=.$.=.=.$.=.=.=.=.e.=.=.e.=.=.e.<.=.=.    ",
"      =.$.=.=.$.=.$.$.=.=.$.=.$.$.=.=.$.$.<.<.$.$.<.$.<.<.$.$.<.$.<.<.$.$.<.$.<.<.$.$.<.<.e.e.<.<.e.<.e.e.<.<.e.$.<.<.$.$.<.$.<.=.$.=.      ",
"        e.=.=.e.e.<.<.e.=.$.=.<.e.=.=.e.=.e.e.=.=.<.$.e.=.=.=.=.=.e.e.=.=.<.$.e.=.=.=.=.=.=.=.=.$.e.<.=.=.$.$.=.=.e.e.=.=.<.$.e.=.e.        ",
"          =.$.<.=.=.$.=.e.<.=.e.<.=.$.<.=.$.<.=.=.e.=.=.e.$.<.e.=.$.<.=.=.e.=.=.e.$.<.e.$.<.e.$.=.=.$.=.=.<.e.=.=.$.<.=.=.e.=.=.=.          ",
"            <.$.=.=.e.=.=.=.e.=.$.=.=.=.e.<.<.$.e.=.<.e.<.=.e.<.$.=.=.$.=.$.=.=.<.$.$.=.=.e.e.<.=.=.e.=.e.=.=.e.<.$.=.e.=.=.<.              ",
"                  =.<.$.e.$.<.=.e.=.$.<.=.$.e.=.<.=.$.=.$.=.=.$.<.e.e.<.=.<.e.$.=.=.<.e.$.<.=.=.e.$.<.=.<.$.$.<.e.=.=.=.                    "
};
