/* XPM */
static char *result[] = {
/* columns rows colors chars-per-pixel */
"75 31 57 1 ",
"  c gray25",
". c #414141",
"X c #434343",
"o c #444444",
"O c gray27",
"+ c gray28",
"@ c #484848",
"# c #4B4B4B",
"$ c #505050",
"% c gray32",
"& c #565656",
"* c gray34",
"= c #5B5B5B",
"- c gray38",
"; c gray39",
": c gray40",
"> c #6C6C6C",
", c #6F6F6F",
"< c #727272",
"1 c #777777",
"2 c #7B7B7B",
"3 c gray49",
"4 c gray51",
"5 c gray53",
"6 c #888888",
"7 c #8D8D8D",
"8 c #939393",
"9 c gray60",
"0 c #9F9F9F",
"q c #A4A4A4",
"w c gray68",
"e c #B7B7B7",
"r c #C1C1C1",
"t c #C3C3C3",
"y c gray81",
"u c gray86",
"i c gainsboro",
"p c #E7E7E7",
"a c gray92",
"s c #ECECEC",
"d c gray93",
"f c #EEEEEE",
"g c #EFEFEF",
"h c #F1F1F1",
"j c #F3F3F3",
"k c #F4F4F4",
"l c gray96",
"z c #F6F6F6",
"x c gray97",
"c c #F8F8F8",
"v c #F9F9F9",
"b c gray98",
"n c #FBFBFB",
"m c gray99",
"M c #FDFDFD",
"N c white",
"B c None",
/* pixels */
"BBBBBBBBBBBBBBBBBBBBBBBBBBBBBBBB        BBBBBBBBBBBBBBBBBBBBBBBBBBBBBBBBBBB",
"BBBBBBBBBBBBBBBBBBBBBBBBBBBBB              BBBBBBBBBBBBBBBBBBBBBBBBBBBBBBBB",
"BBBBBBBBBBBBBBBBBBBBBBBBBB                    BBBBBBBBBBBBBBBBBBBBBBBBBBBBB",
"BBBBBBBNNNNNNNNNNNNNNNBBB                      BBBBBBBBBBBBBBBBBBBBBBBBBBBB",
"BBBBNNNNNNNNNNNNNNNNNNNw                        BBBBBNNNNNNNNNNNNNNNNBBBBBB",
"BBBNNNNNNNNNNNNNNNNNNNu                          BBNNNNNNNNNNNNNNNNNNNNBBBB",
"BBNNNNNNNNNNNNNNNNNNNp#                         *yNNNNNNNNNNNNNNNNNNNNNNBBB",
"BNNNNNNNNNNNNNNNNNNNN;                         2NNNNNNNNNNNNNNNNNNNNNNNNNBB",
"BNNNNNNNNNNNNNNNNNNN0                          pNNNNNNNNNNNNNNNNNNNNNNNNNNB",
"NNNNNNNNNNNNNNNNNNNp                          ;NNNNNNNNNNNNNNNNNNNNNNNNNNNN",
"NNNNNNNNNNNNNNNNNNN5                          ,NNNNNNNNNNNNNNNNNNNNNNNNNNNN",
"BNNNNNNNNNNNNNNNNNj                           2NNNNNNNNNNNNNNNNNNNNNNNNNNNN",
"BcNNNNNNNNNNNNNNNNe                           0NNNNNNNNNNNNNNNNNNNNNNNNNNNN",
"BBgbNNNNNNNNNNNNNN2                           8NNNNNNNNNNNNNNNNNNNNNNNNNNbB",
"BBssgznNNNNNNNNNNN#   #4>&         $<3O       *NNNNNNNNNNNNNNNNNNNNNNNNMksB",
"BBsssssdhlxmNNNNNj    >99994#   #18999:        5NNNNNNNNNNNNNNNNNNNNmxhsssB",
"BBsssssssssssssssr    499999&   &99999>         *eyiNNNNNNNNNNNMvljfssssssB",
"BBBasssssssssBBBBB    =99996    O89998#           O@@%2qtssssssssssssssssBB",
"BBBBBBBBBBBBBBBBBB     -996O     $898$           O@@@@@@@BBBBBsassssssssBBB",
"BBBBBBBBBBBBBBBBBB         O->>>=               O@@@@@@@@@BBBBBBBBBBBBBBBBB",
"BBBBBBBBBBBBBBBBBB        #774448>             O@@@@@@@@@@+BBBBBBBBBBBBBBBB",
"BBBBBBBBBBBBBBBBBB        38#   =9-           o@@@@@@@@@@@@BBBBBBBBBBBBBBBB",
"BBBBBBBBBBBBBBBBBB        -$     =$           +@@@@@@@@@@@@BBBBBBBBBBBBBBBB",
"BBBBBBBBBBBBBBBBBB                            @@@@@@@@@@@@@+BBBBBBBBBBBBBBB",
"BBBBBBBBBBBBBBBBBBB                           @@@@@@@@@@@@@+BBBBBBBBBBBBBBB",
"BBBBBBBBBBBBBBBBBBB                          .@@@@@@@@@@@@@BBBBBBBBBBBBBBBB",
"BBBBBBBBBBBBBBBBBBBB                         X@@@@@@@@@@@@+BBBBBBBBBBBBBBBB",
"BBBBBBBBBBBBBBBBBBBB                         +@@@@@@@@@@@@BBBBBBBBBBBBBBBBB",
"BBBBBBBBBBBBBBBBBBBBB                       O@@@@@@@@@@@@BBBBBBBBBBBBBBBBBB",
"BBBBBBBBBBBBBBBBBBBBBBBB                   o@@@@@@@@@@@+BBBBBBBBBBBBBBBBBBB",
"BBBBBBBBBBBBBBBBBBBBBBBBBBBBB            BBBBBBBBBBBBBBBBBBBBBBBBBBBBBBBBBB"
};
