/* XPM */
static char *result[] = {
/* columns rows colors chars-per-pixel */
"70 70 13 1 ",
"  c #C58F5C",
". c #C5905D",
"X c #C5905E",
"o c #C69160",
"O c #C69260",
"+ c #C69261",
"@ c #C79463",
"# c #C79464",
"$ c #C79564",
"% c #C89666",
"& c #C89667",
"* c #C89768",
"= c #C99869",
/* pixels */
"======================================================================",
"======================================================================",
"======================================================================",
"======================================================================",
"======================================================================",
"======================================================================",
"======================================================================",
"======================================================================",
"======================================================================",
"======================================================================",
"======================================================================",
"======================================================================",
"==========*X#=====================OO=====================#X*==========",
"=========*X  #===================O  O===================#  X*=========",
"========*X    #=================O    O=================#    X*========",
"=======*X      #===============O      O===============#      X*=======",
"======*X        #=============O        O=============#        X*======",
"=====*X          #==========*O          O*==========#          X&=====",
"====%X            #========*X            X*========#             %====",
"===%               #======*X              X*======#               %===",
"==%                 #====*X                X*====#                 %==",
"=%                   #==*X                  X*==#                   %=",
"%                     #*X                    X*#                     %",
"                       .                      .                       ",
"                                                                      ",
"                                                                      ",
"                                                                      ",
"           @X                     OO                     X@           ",
"          #=*X                   O==O                   X*=#          ",
"         #===*X                 O====O                 X*===#         ",
"        #=====*X               O======O               X*=====#        ",
"       #=======*X             O========O             X*=======#       ",
"      #=========*X           O==========O           X*=========#      ",
"     %===========*X         #============#         X*===========%     ",
"    %=============*X       #==============#       X*=============%    ",
"   %===============*X     #================#     X*===============%   ",
"  %=================*X   #==================#   X*=================%  ",
" %===================*X #====================# X*===================% ",
"%=====================*$======================$*=====================%",
"======================================================================",
"======================================================================",
"======================================================================",
"===========+%=====================##=====================%+===========",
"==========O  %===================#  #===================%  O==========",
"=========O    %=================#    #=================%    O=========",
"========O      %===============#      #===============%      O========",
"=======O        %=============#        #=============%        O=======",
"======O          %===========#          #===========%          O======",
"====*O            %=========O            O=========%            X*====",
"===*X              %=======O              O=======%              X*===",
"==*X                %=====O                O=====%                X*==",
"=*X                  %===O                  O===%                  X*=",
"*X                    %=O                    O=%                    X*",
"X                      o                      o                      X",
"                                                                      ",
"                                                                      ",
"                                                                      ",
"           @X                     OO                      #           ",
"          #=*X                   O==O                    %=%          ",
"         #===*X                 O====O                  %===%         ",
"        #=====*X               O======O                %=====%        ",
"       #=======*X             O========O              %=======%       ",
"      %=========*X           O==========O            %=========%      ",
"     %============O         O============#         X*===========%     ",
"    %==============O       O==============#       X*=============%    ",
"   %================O     O================#     X*===============%   ",
"  %==================O   O==================#   X*=================%  ",
" #====================O O====================# X*===================% ",
"#======================#======================$*=====================%",
"======================================================================"
};
