/* XPM */
static char *result[] = {
/* columns rows colors chars-per-pixel */
"70 70 57 1 ",
"  c #1787B6",
". c #1788B8",
"X c #1789B9",
"o c #188BBC",
"O c #188EBF",
"+ c #1890C3",
"@ c #1990C3",
"# c #1892C6",
"$ c #1992C6",
"% c #1994C8",
"& c #1A95C9",
"* c #1997CC",
"= c #1A97CC",
"- c #1B9ACF",
"; c #1B9CD2",
": c #1C9ED6",
"> c #1BA0DA",
", c #1CA0D9",
"< c #1CA1D9",
"1 c #1DA2DC",
"2 c #1CA3DC",
"3 c #1DA3DC",
"4 c #1DA6E0",
"5 c #1DA7E0",
"6 c #1DA6E1",
"7 c #1DA7E1",
"8 c #1EA6E0",
"9 c #1EA7E0",
"0 c #1EA7E1",
"q c #22A8E1",
"w c #27AAE2",
"e c #29ACE3",
"r c #2CACE2",
"t c #30AEE3",
"y c #35B0E4",
"u c #36B0E4",
"i c #3AB2E4",
"p c #3EB4E5",
"a c #43B6E6",
"s c #48B7E6",
"d c #4CB9E7",
"f c #4DB9E8",
"g c #50BBE7",
"h c #51BBE7",
"j c #56BDE8",
"k c #58BEE8",
"l c #5ABFE9",
"z c #5FC1E9",
"x c #5CC0EA",
"c c #63C2EA",
"v c #64C3EA",
"b c #68C5EA",
"n c #69C5EA",
"m c #68C4EB",
"M c #69C4EB",
"N c #69C5EB",
"B c None",
/* pixels */
"BBBBBBBBBBBBBBBBBBBBBBBBBBBBBBBBBBBBBBBBBBBBBBBBBBBBBBBBBBBBBBBBBBBBBB",
"BBBBBBBBBBBBBBBBBBBBBBBBBBBBBBBBBBBBBBBBBBBBBBBBBBBBBBBBBBBBBBBBBBBBBB",
"BBBBBBBBBBBBBBBBBBBBBBBBBBBBBBBBBBBBBBBBBBBBBBBBBBBBBBBBBBBBBBBBBBBBBB",
"BBBBBBBBBBBBBBBBBBBBBBBBBBBBBBBBBBBBBBBBBBBBBBBBBBBBBBBBBBBBBBBBBBBBBB",
"BBBBBBBBBBBBBBBBBBBBBBBBBBBBBBBBBBBBBBBBBBBBBBBBBBBBBBBBBBBBBBBBBBBBBB",
"BBBBBBBBBBBBBBBBBBBBBBBBBBBBBBBBBBBBBBBBBBBBBBBBBBBBBBBBBBBBBBBBBBBBBB",
"BBBBBBBBBBBBBBBBBBBBBBBBBBBBBBBBBBBBBBBBBBBBBBBBBBBBBBBBBBBBBBBBBBBBBB",
"BBBBBBBBBBBBBBBBBBBBBBBBBBBBBBBBBBBBBBBBBBBBBBBBBBBBBBBBBBBBBBBBBBBBBB",
"BBBBBBBBBBBBBBBBBBBBBBBBBBBBBBBBBBBBBBBBBBBBBBBBBBBBBBBBBBBBBBBBBBBBBB",
"BBBBBBBBBBBBBBBBBBBBBBBBBBBBBBBBBBBBBBBBBBBBBBBBBBBBBBBBBBBBBBBBBBBBBB",
"BBBBBBBBBBBBBBBBBBBBBBBBBBBBBBBBBBBBBBBBBBBBBBBBBBBBBBBBBBBBBBBBBBBBBB",
"BBBBBBBBBBBBBBBBBBBBBBBBBBBBBBBBBBBBBBBBBBBBBBBBBBBBBBBBBBBBBBBBBBBBBB",
"BBBBBBBBBBBBBBBBBBBBBBBBBBBBBBBBBBBBBBBBBBBBBBBBBBBBBBBBBBBBBBBBBBBBBB",
"BBBBBBBBBBBBBBBBBBBBBBBBBBBBBBBBBBBBBBBBBBBBBBBBBBBBBBBBBBBBBBBBBBBBBB",
"BBBBBBBBBBBBBBBBNmmmmmbBBBBBBBBBBBBBBBBBBBBBBBBBBBBBBBBBBBBBBBBBBBBBBB",
"BBBBBBBBBBBBBbMNNNNNNNNNMBBBBBBBBBBBBBBBBBBBBBBBBBBBBBBBBBBBBBBBBBBBBB",
"BBBBBBBBBBBBNNzdytttttihvNMBBBBBBBBBBBBBBBBBBBBBBBBBBBBBBBBBBBBBBBBBBB",
"BBBBBBBBBBBMziq000000000qavnBBBBBBBBBBBBBBBBBBBBBBBBBBBBBBBBBBBBBBBBBB",
"BBBBBBBBBBnh00000000000000qznBBBBBBBBBBBBBBBBBBBBBBBBBBBBBBBBBBBBBBBBB",
"BBBBBBBBBNzq000000000000000rzNBBBBBBBBBBBBBBBBBBBBBBBBBBBBBBBBBBBBBBBB",
"BBBBBBBBmvr00000000000000000rvMBBBBBBBBBBBBBBBBBBBBBBBBBBBBBBBBBBBBBBB",
"BBBBBBBBNy0000000000000000000yNBBBBBBBBBBBBBBBBBBBBBBBBBBBBBBBBBBBBBBB",
"BBBBBBBbt000000000000000000000pbBBBBBBBBBBBBBBBBBBBBBBBBBBBBBBBBBBBBBB",
"BBBBBBBd00000000000000000000000zBBBBBBBBBBBBBBBBBBBBBBBBBBBBBBBBBBBBBB",
"BBBBBBnq0000000008BBB8000000000iMBBBBBBBBBBBBBBBBBBBBBBBBBBBBBBBBBBBBB",
"BBBBBBd0000000009BBBBB0000000000kBBBBBBBBBBBBBBBBBBBBBBBBBBBBBBBBBBBBB",
"BBBBBBt000000000BBBBBB6000000000pBBBBBBBBBBBBBBBBBBBBBBBBBBBBBBBBBBBBB",
"BBBBBl0000000008BBBBBBB000000000wNNNNNNNNNNNNNNNNNNNNNNNNNNNMmbBBBBBBB",
"BBBBBa000000000BBBBBBBB4000000000lNNNNNNNNNNNNNNNNNNNNNNNNNNNNNmBBBBBB",
"BBBBBu000000000BBBBBBBBB000000000000000000000000000000000000qtivBBBBBB",
"BBBBBt000000000BBBBBBBBB000000000000000000000000000000000000000ybBBBBB",
"BBBBBq000000000BBBBBBBBB0000000000000000000000000000000000000000xBBBBB",
"BBBBB0000000000BBBBBBBBB0000000000000000000000000000000000000000eBBBBB",
"BBBBB0000000000BBBBBBBBB00000000000000000000000000000000000000007BBBBB",
"BBBBB9000000000BBBBBBBBB0000000000000000000000000000000000000000BBBBBB",
"BBBBB5000000000BBBBBBBBf0000000000000000000000000000000000000004BBBBBB",
"BBBBB7000000000gBBBBBBBa000000000000000000000000000000000000087BBBBBBB",
"BBBBBB000000000sBBBBBBBy000000000BBBBBBBBBB                  BBBBBBBBB",
"BBBBBB000000000tnBBBBBcq000000008BBBBBBBBBB.XXXXXXXXXXXXXXXXXBBBBBBBBB",
"BBBBBB8000000000jnBBBMa0000000007BBBBBBBBBBooooooooooooooooooBBBBBBBBB",
"BBBBBBB000000000rvNNNlq000000000BBBBBBBBBBBOOOOOOOOOOOOOOOOOOBBBBBBBBB",
"BBBBBBB8000000000rvNzq0000000009BBBBBBBBBBB+@@@@@@@@@@@@@@@@@BBBBBBBBB",
"BBBBBBBB00000000000000000000000BBBBBBBBBBBB#$$$$$$$$$$$$$$$$$BBBBBBBBB",
"BBBBBBBB80000000000000000000005BBBBBBBBBBBB%&&&&&&&&&&&&&&&&&BBBBBBBBB",
"BBBBBBBBB800000000000000000008BBBBBBBBBBBBB*=================BBBBBBBBB",
"BBBBBBBBBB0000000000000000009BBBBBBBBBBBBBB------------------BBBBBBBBB",
"BBBBBBBBBBB00000000000000008BBBBBBBBBBBBBBB;;;;;;;;;;;;;;;;;;BBBBBBBBB",
"BBBBBBBBBBBB800000000000008BBBBBBBBBBBBBBBB:::::::BBBBB::::::BBBBBBBBB",
"BBBBBBBBBBBBB700000000008BBBBBBBBBBBBBBBBBB><<<<<BBBBBB<<<<<,BBBBBBBBB",
"BBBBBBBBBBBBBBB69000009BBBBBBBBBBBBBBBBBBBBB23333BBBBBB13331BBBBBBBBBB",
"BBBBBBBBBBBBBBBBBBBBBBBBBBBBBBBBBBBBBBBBBBBBBBBBBBBBBBBBBBBBBBBBBBBBBB",
"BBBBBBBBBBBBBBBBBBBBBBBBBBBBBBBBBBBBBBBBBBBBBBBBBBBBBBBBBBBBBBBBBBBBBB",
"BBBBBBBBBBBBBBBBBBBBBBBBBBBBBBBBBBBBBBBBBBBBBBBBBBBBBBBBBBBBBBBBBBBBBB",
"BBBBBBBBBBBBBBBBBBBBBBBBBBBBBBBBBBBBBBBBBBBBBBBBBBBBBBBBBBBBBBBBBBBBBB",
"BBBBBBBBBBBBBBBBBBBBBBBBBBBBBBBBBBBBBBBBBBBBBBBBBBBBBBBBBBBBBBBBBBBBBB",
"BBBBBBBBBBBBBBBBBBBBBBBBBBBBBBBBBBBBBBBBBBBBBBBBBBBBBBBBBBBBBBBBBBBBBB",
"BBBBBBBBBBBBBBBBBBBBBBBBBBBBBBBBBBBBBBBBBBBBBBBBBBBBBBBBBBBBBBBBBBBBBB",
"BBBBBBBBBBBBBBBBBBBBBBBBBBBBBBBBBBBBBBBBBBBBBBBBBBBBBBBBBBBBBBBBBBBBBB",
"BBBBBBBBBBBBBBBBBBBBBBBBBBBBBBBBBBBBBBBBBBBBBBBBBBBBBBBBBBBBBBBBBBBBBB",
"BBBBBBBBBBBBBBBBBBBBBBBBBBBBBBBBBBBBBBBBBBBBBBBBBBBBBBBBBBBBBBBBBBBBBB",
"BBBBBBBBBBBBBBBBBBBBBBBBBBBBBBBBBBBBBBBBBBBBBBBBBBBBBBBBBBBBBBBBBBBBBB",
"BBBBBBBBBBBBBBBBBBBBBBBBBBBBBBBBBBBBBBBBBBBBBBBBBBBBBBBBBBBBBBBBBBBBBB",
"BBBBBBBBBBBBBBBBBBBBBBBBBBBBBBBBBBBBBBBBBBBBBBBBBBBBBBBBBBBBBBBBBBBBBB",
"BBBBBBBBBBBBBBBBBBBBBBBBBBBBBBBBBBBBBBBBBBBBBBBBBBBBBBBBBBBBBBBBBBBBBB",
"BBBBBBBBBBBBBBBBBBBBBBBBBBBBBBBBBBBBBBBBBBBBBBBBBBBBBBBBBBBBBBBBBBBBBB",
"BBBBBBBBBBBBBBBBBBBBBBBBBBBBBBBBBBBBBBBBBBBBBBBBBBBBBBBBBBBBBBBBBBBBBB",
"BBBBBBBBBBBBBBBBBBBBBBBBBBBBBBBBBBBBBBBBBBBBBBBBBBBBBBBBBBBBBBBBBBBBBB",
"BBBBBBBBBBBBBBBBBBBBBBBBBBBBBBBBBBBBBBBBBBBBBBBBBBBBBBBBBBBBBBBBBBBBBB",
"BBBBBBBBBBBBBBBBBBBBBBBBBBBBBBBBBBBBBBBBBBBBBBBBBBBBBBBBBBBBBBBBBBBBBB",
"BBBBBBBBBBBBBBBBBBBBBBBBBBBBBBBBBBBBBBBBBBBBBBBBBBBBBBBBBBBBBBBBBBBBBB"
};
