/* XPM */
static char *a2V5WWVsbG93[] = {
/* columns rows colors chars-per-pixel */
"70 70 50 1 ",
"  c #DCB000",
". c #DCB001",
"X c #DEB200",
"o c #DEB201",
"O c #E0B400",
"+ c #E1B401",
"@ c #E3B600",
"# c #E3B601",
"$ c #E6B800",
"% c #E6B801",
"& c #E8BA00",
"* c #E9BA01",
"= c #EBBC00",
"- c #EBBC01",
"; c #EEBE00",
": c #F0C000",
"> c #F3C200",
", c #F6C400",
"< c #F8C500",
"1 c #F8C600",
"2 c #FAC800",
"3 c #FBC800",
"4 c #FFCB00",
"5 c #FFCC00",
"6 c #FECD07",
"7 c #FECE0E",
"8 c #FFCF13",
"9 c #FECF15",
"0 c #FED11C",
"q c #FED223",
"w c #FED225",
"e c #FED32A",
"r c #FED531",
"t c #FED638",
"y c #FED73F",
"u c #FED841",
"i c #FED946",
"p c #FED947",
"a c #FEDA4D",
"s c #FEDA4E",
"d c #FEDB54",
"f c #FEDC58",
"g c #FDDD5A",
"h c #FEDD5B",
"j c #FEDE62",
"k c #FEDF69",
"l c #FDE170",
"z c #FEE070",
"x c #FEE170",
"c c None",
/* pixels */
"cccccccccccccccccccccccccccccccccccccccccccccccccccccccccccccccccccccc",
"cccccccccccccccccccccccccccccccccccccccccccccccccccccccccccccccccccccc",
"cccccccccccccccccccccccccccccccccccccccccccccccccccccccccccccccccccccc",
"cccccccccccccccccccccccccccccccccccccccccccccccccccccccccccccccccccccc",
"cccccccccccccccccccccccccccccccccccccccccccccccccccccccccccccccccccccc",
"cccccccccccccccccccccccccccccccccccccccccccccccccccccccccccccccccccccc",
"cccccccccccccccccccccccccccccccccccccccccccccccccccccccccccccccccccccc",
"cccccccccccccccccccccccccccccccccccccccccccccccccccccccccccccccccccccc",
"cccccccccccccccccccccccccccccccccccccccccccccccccccccccccccccccccccccc",
"cccccccccccccccccccccccccccccccccccccccccccccccccccccccccccccccccccccc",
"cccccccccccccccccccccccccccccccccccccccccccccccccccccccccccccccccccccc",
"cccccccccccccccccccccccccccccccccccccccccccccccccccccccccccccccccccccc",
"cccccccccccccccccccccccccccccccccccccccccccccccccccccccccccccccccccccc",
"cccccccccccccccccccccccccccccccccccccccccccccccccccccccccccccccccccccc",
"cccccccccccccccczzzzxzxccccccccccccccccccccccccccccccccccccccccccccccc",
"cccccccccccccxxxxxxxxxxxxccccccccccccccccccccccccccccccccccccccccccccc",
"ccccccccccccxxjiq00000eakxxccccccccccccccccccccccccccccccccccccccccccc",
"cccccccccccxje65555555556tkzcccccccccccccccccccccccccccccccccccccccccc",
"ccccccccccxa555555555555556jxccccccccccccccccccccccccccccccccccccccccc",
"ccccccccczj65555555555555559jzcccccccccccccccccccccccccccccccccccccccc",
"ccccccccxk9555555555555555559kxccccccccccccccccccccccccccccccccccccccc",
"ccccccccxq4555555555555555555qxccccccccccccccccccccccccccccccccccccccc",
"cccccccx0555555555555555555555rxcccccccccccccccccccccccccccccccccccccc",
"ccccccci55555555555555555555555jcccccccccccccccccccccccccccccccccccccc",
"ccccccx65555555555ccc5555555555exccccccccccccccccccccccccccccccccccccc",
"cccccci4555555555ccccc5555555555gccccccccccccccccccccccccccccccccccccc",
"cccccc0555555555cccccc4555555555rccccccccccccccccccccccccccccccccccccc",
"cccccg5555555554ccccccc5555555557zxxxxxxxxxxxxxxxxxxxxxxxxxxxxxccccccc",
"ccccct555555555cccccccc5555555555gxxxxxxxxxxxxxxxxxxxxxxxxxxxxxzcccccc",
"cccccw555555555ccccccccc55555555555555555555555555555555555560ekcccccc",
"ccccc0555555555ccccccccc5555555555555555555555555555555555555540xccccc",
"ccccc6555555555ccccccccc5555555555555555555555555555555555555555uccccc",
"ccccc5555555555ccccccccc55555555555555555555555555555555555555559ccccc",
"ccccc5555555555ccccccccc55555555555555555555555555555555555555555ccccc",
"ccccc5555555555ccccccccc5555555555555555555555555555555555555555cccccc",
"ccccc5555555555ccccccccp5555555555555555555555555555555555555555cccccc",
"ccccc5555555555accccccct555555555555555555555555554455445544545ccccccc",
"cccccc555555555ucccccccw555555555cccccccccco.......o...o.....ccccccccc",
"cccccc5555555550xccccck6555555555cccccccccco.o..oooooooooooooccccccccc",
"cccccc4555555555dxcccxt5555555555cccccccccco##+##o#o#o#oo#++#ccccccccc",
"ccccccc5555555559kxxxh6555555555ccccccccccc##################ccccccccc",
"ccccccc55555555549kxj65555555555ccccccccccc$%%%%%%%%%%%%$$%%%ccccccccc",
"cccccccc55555555555555555555555cccccccccccc&**&&********&****ccccccccc",
"cccccccc45555555555555555555555cccccccccccc=-===-------------ccccccccc",
"ccccccccc555555555555555555554ccccccccccccc;;;;;;;;;;;;;;;;;;ccccccccc",
"cccccccccc5555555555555555555cccccccccccccc>;>::::::;>::::;>>ccccccccc",
"ccccccccccc55555555555555555ccccccccccccccc>>>>>>>>>>>>>>>>>>ccccccccc",
"cccccccccccc555555555555554cccccccccccccccc,,,,,,,ccccc,,,,,,ccccccccc",
"ccccccccccccc555555555555cccccccccccccccccc111111cccccc,11111ccccccccc",
"ccccccccccccccc45555555ccccccccccccccccccccc33333cccccc31433cccccccccc",
"cccccccccccccccccccccccccccccccccccccccccccccccccccccccccccccccccccccc",
"cccccccccccccccccccccccccccccccccccccccccccccccccccccccccccccccccccccc",
"cccccccccccccccccccccccccccccccccccccccccccccccccccccccccccccccccccccc",
"cccccccccccccccccccccccccccccccccccccccccccccccccccccccccccccccccccccc",
"cccccccccccccccccccccccccccccccccccccccccccccccccccccccccccccccccccccc",
"cccccccccccccccccccccccccccccccccccccccccccccccccccccccccccccccccccccc",
"cccccccccccccccccccccccccccccccccccccccccccccccccccccccccccccccccccccc",
"cccccccccccccccccccccccccccccccccccccccccccccccccccccccccccccccccccccc",
"cccccccccccccccccccccccccccccccccccccccccccccccccccccccccccccccccccccc",
"cccccccccccccccccccccccccccccccccccccccccccccccccccccccccccccccccccccc",
"cccccccccccccccccccccccccccccccccccccccccccccccccccccccccccccccccccccc",
"cccccccccccccccccccccccccccccccccccccccccccccccccccccccccccccccccccccc",
"cccccccccccccccccccccccccccccccccccccccccccccccccccccccccccccccccccccc",
"cccccccccccccccccccccccccccccccccccccccccccccccccccccccccccccccccccccc",
"cccccccccccccccccccccccccccccccccccccccccccccccccccccccccccccccccccccc",
"cccccccccccccccccccccccccccccccccccccccccccccccccccccccccccccccccccccc",
"cccccccccccccccccccccccccccccccccccccccccccccccccccccccccccccccccccccc",
"cccccccccccccccccccccccccccccccccccccccccccccccccccccccccccccccccccccc",
"cccccccccccccccccccccccccccccccccccccccccccccccccccccccccccccccccccccc",
"cccccccccccccccccccccccccccccccccccccccccccccccccccccccccccccccccccccc"
};
