/* XPM */
static char *bG9ja195ZWxsb3c_[] = {
/* columns rows colors chars-per-pixel */
"70 70 61 1 ",
"  c #3F3C2F",
". c gray20",
"X c #7F6C1F",
"o c #4C462C",
"O c #594F29",
"+ c #4C493C",
"@ c #665926",
"# c #726223",
"$ c #7F6F30",
"% c #7F7550",
"& c #8C751C",
"* c #997F19",
"= c #BF9C0F",
"- c #A58916",
"; c #B29213",
": c #CCA50C",
"> c #DAAE03",
", c #DCAF02",
"< c #D8AF09",
"1 c #DEB102",
"2 c #E0B302",
"3 c #E5B702",
"4 c #E5B806",
"5 c #ECBD01",
"6 c #F3C200",
"7 c #F2C203",
"8 c #F5C400",
"9 c #FAC800",
"0 c #FFCB00",
"q c #FFCC00",
"w c #FECD08",
"e c #FECF10",
"r c #FED018",
"t c #FED220",
"y c #FED328",
"u c #FED530",
"i c #FED637",
"p c #FED638",
"a c #8B8055",
"s c #988B5A",
"d c #A5965E",
"f c #BEA648",
"g c #B1A163",
"h c #BEAB60",
"j c #D8BB4A",
"k c #CBB76D",
"l c #FED840",
"z c #FED948",
"x c #E4C95F",
"c c #FEDB50",
"v c #FEDC58",
"b c #D7C272",
"n c #FEDF69",
"m c #FEE170",
"M c #FEE275",
"N c #FEE278",
"B c #FEE380",
"V c #FDE480",
"C c #FEE480",
"Z c #FEE481",
"A c None",
/* pixels */
"AAAAAAZNZZZZZZZZZZZZZZZZZZZZZZZZZZZZZZZZZZZZZZZZZZZZZZZZZZZZZZZVAAAAAA",
"AAAABZZZZZZZZZZZZZZZZZZZZZZZZZZZZZZZZZZZZZZZZZZZZZZZZZZZZZZZZZZZZBAAAA",
"AABZNzuttrqqqqqqqqqqqqqqqqqqqqqqqqqqqqqqqqqqqqqqqqqqqqqqqqqqrttuzmZBAA",
"AZZpqqqqqqqqqqqqqqqqqqqqqqqqqqqqqqqqqqqqqqqqqqqqqqqqqqqqqqqqqqqqqquNZA",
"ANrqqqqqqqqqqqqqqqqqqqqqqqqqqqqqqqqqqqqqqqqqqqqqqqqqqqqqqqqqqqqqqqqwmA",
"Avqqqqqqqqqqqqqqqqqqqqqqqqqqqqqqqqqqqqqqqqqqqqqqqqqqqqqqqqq0qqqqqqqqpA",
"Mwqqqqqq9558qqqqqqqqqqqqqqqqqqqqqqqqqqqqqqqqqqqqqqqqqqqqqq9558qqqqqqqn",
"lqqqqqq51>>>4qqqqqqqqqqqqqqqqqqqqqqqqqqqqqqqqqqqqqqqqqqqq51>>12qqqqqqp",
"tqqqqq5>>>>>>5qqqqqqqqqqqqqqqqqqqqqqqqqqqqqqqqqqqqqqqqqq5>>>>>>5qqqqqt",
"wqqqq01>>>>>>>qqqqqqqqqqqqqqqqqqqqqqqqqqqqqqqqqqqqqqqqqq>>>>>>>1qqqqqq",
"qqqqqq>>>>>>>>qqqqqqqqqqqqqqqqqqqqqqqqqqqqqqqqqqqqqqqqqq>>>>>>>>qqqqqq",
"qqqqqq1>>>>>>1qqqqqqqqqqqqqqqqqqqqqqqqqqqqqqqqqqqqqqqqqq1>>>>>>1qqqqqq",
"qqqqqq6>>>>>>6qqqqqqqqqqqqqqqqqqqqqqqqqqqqqqqqqqqqqqqqqq6>>>>>>6qqqqqq",
"qqqqqqq82>>>6qqqqqqqqqqqqqqqqqqqqqqqqqqqqqqqqqqqqqqqqqqqq81>>>6qqqqqqq",
"qqqqqqqqq88qqqqqqqqqqqqqqqqqqqqqqqqqqqqqqqqqqqqqqqqqqqqqqqq88qqqqqqqqq",
"qqqqqqqqqqqqqqqqqqqqqqqqqqqqqqqqqqqqqqqqqqqqqqqqqqqqqqqqqqqqqqqqqqqqqq",
"qqqqqqqqqqqqqqqqqqqqqqqqqqqqqqqqqqqqqqqqqqqqqqqqqqqqqqqqqqqqqqqqqqqqqq",
"qqqqqqqqqqqqqqqqqqqqqqqqqqqqqqqqqqqqqqqqqqqqqqqqqqqqqqqqqqqqqqqqqqqqqq",
"qqqqqqqqqqqqqqqqqqqqqqqqqqqqqqqqqqqqqqqqqqqqqqqqqqqqqqqqqqqqqqqqqqqqqq",
"qqqqqqqqqqqqqqqqqqqqqqqqqqqqqqqqqqqqqqqqqqqqqqqqqqqqqqqqqqqqqqqqqqqqqq",
"qqqqqqqqqqqqqqqqqqqqqqqqqqqqqqqqqqqqqqqqqqqqqqqqqqqqqqqqqqqqqqqqqqqqqq",
"qqqqqqqqqqqqqqqqqqqqqqqqqqqqqqqqqqqqqqqqqqqqqqqqqqqqqqqqqqqqqqqqqqqqqq",
"qqqqqqqqqqqqqqqqqqqqqqqqqqqqqqqqqqqqqqqqqqqqqqqqqqqqqqqqqqqqqqqqqqqqqq",
"qqqqqqqqqqqqqqqqqqqqqqqqqqqqqqq;#@@@@&<qqqqqqqqqqqqqqqqqqqqqqqqqqqqqqq",
"qqqqqqqqqqqqqqqqqqqqqqqqqqqqq<O........#79qqqqqqqqqqqqqqqqqqqqqqqqqqqq",
"qqqqqqqqqqqqqqqqqqqqqqqqqqqq6o..........#9qqqqqqqqqqqqqqqqqqqqqqqqqqqq",
"qqqqqqqqqqqqqqqqqqqqqqqqqqqq@............-qqqqqqqqqqqqqqqqqqqqqqqqqqqq",
"qqqqqqqqqqqqqqqqqqqqqqqqqqq=............. 4qqqqqqqqqqqqqqqqqqqqqqqqqqq",
"qqqqqqqqqqqqqqqqqqqqqqqqqqq#..............-qqqqqqqqqqqqqqqqqqqqqqqqqqq",
"qqqqqqqqqqqqqqqqqqqqqqqqqqq ..............#qqqqqqqqqqqqqqqqqqqqqqqqqqq",
"qqqqqqqqqqqqqqqqqqqqqqqqqqq...............@qqqqqqqqqqqqqqqqqqqqqqqqqqq",
"qqqqqqqqqqqqqqqqqqqqqqqqqqq...............@qqqqqqqqqqqqqqqqqqqqqqqqqqq",
"qqqqqqqqqqqqqqqqqqqqqqqqqqq+..............$qqqqqqqqqqqqqqqqqqqqqqqqqqq",
"qqqqqqqqqqqqqqqqqqqqqqqqqqqa..............fqqqqqqqqqqqqqqqqqqqqqqqqqqq",
"qqqqqqqqqqqqqqqqqqqqqqqqqqqx.............+zqqqqqqqqqqqqqqqqqqqqqqqqqqq",
"qqqqqqqqqqqqqqqqqqqqqqqqqqqcs............kuqqqqqqqqqqqqqqqqqqqqqqqqqqq",
"qqqqqqqqqqqqqqqqqqqqqqqqqqqeZ%..........gmqqqqqqqqqqqqqqqqqqqqqqqqqqqq",
"qqqqqqqqqqqqqqqqqqqqqqqqqqqqlZd........bZtqqqqqqqqqqqqqqqqqqqqqqqqqqqq",
"qqqqqqqqqqqqqqqqqqqqqqqqqqqqqza........huqqqqqqqqqqqqqqqqqqqqqqqqqqqqq",
"qqqqqqqqqqqqqqqqqqqqqqqqqqqqqqo........$qqqqqqqqqqqqqqqqqqqqqqqqqqqqqq",
"qqqqqqqqqqqqqqqqqqqqqqqqqqqqq:..........600qqqqqqqqqqqqqqqqqqqqqqqqqqq",
"qqqqqqqqqqqqqqqqqqqqqqqqqqqqqX..........;0qqqqqqqqqqqqqqqqqqqqqqqqqqqq",
"qqqqqqqqqqqqqqqqqqqqqqqqqqqq6 ..........Oqqqqqqqqqqqqqqqqqqqqqqqqqqqqq",
"qqqqqqqqqqqqqqqqqqqqqqqqqqqq;............4qqqqqqqqqqqqqqqqqqqqqqqqqqqq",
"qqqqqqqqqqqqqqqqqqqqqqqqqqqq@............&qqqqqqqqqqqqqqqqqqqqqqqqqqqq",
"qqqqqqqqqqqqqqqqqqqqqqqqqqq4.............oqqqqqqqqqqqqqqqqqqqqqqqqqqqq",
"qqqqqqqqqqqqqqqqqqqqqqqqqqq*..............=qqqqqqqqqqqqqqqqqqqqqqqqqqq",
"qqqqqqqqqqqqqqqqqqqqqqqqqqqo..............Xqqqqqqqqqqqqqqqqqqqqqqqqqqq",
"qqqqqqqqqqqqqqqqqqqqqqqqqqq...............@qqqqqqqqqqqqqqqqqqqqqqqqqqq",
"qqqqqqqqqqqqqqqqqqqqqqqqqqqhssssssssssssssjqqqqqqqqqqqqqqqqqqqqqqqqqqq",
"qqqqqqqqqqqqqqqqqqqqqqqqqqqZZZZZZZZZZZZZZZvqqqqqqqqqqqqqqqqqqqqqqqqqqq",
"qqqqqqqqqqqqqqqqqqqqqqqqqqqyllllllllllllllrqqqqqqqqqqqqqqqqqqqqqqqqqqq",
"qqqqqqqqqqqqqqqqqqqqqqqqqqqqqqqqqqqqqqqqqqqqqqqqqqqqqqqqqqqqqqqqqqqqqq",
"qqqqqqqqqqqqqqqqqqqqqqqqqqqqqqqqqqqqqqqqqqqqqqqqqqqqqqqqqqqqqqqqqqqqqq",
"qqqqqqqqqqqqqqqqqqqqqqqqqqqqqqqqqqqqqqqqqqqqqqqqqqqqqqqqqqqqqqqqqqqqqq",
"qqqqqqqqqqqqqqqqqqqqqqqqqqqqqqqqqqqqqqqqqqqqqqqqqqqqqqqqqqqqqqqqqqqqqq",
"qqqqqqqq9558qqqqqqqqqqqqqqqqqqqqqqqqqqqqqqqqqqqqqqqqqqqqqq9556qqqqqqqq",
"qqqqqqq5>>>>3qqqqqqqqqqqqqqqqqqqqqqqqqqqqqqqqqqqqqqqqqqqq51>>>3qqqqqqq",
"qqqqqq5>>>>>>5qqqqqqqqqqqqqqqqqqqqqqqqqqqqqqqqqqqqqqqqqq5>>>>>>5qqqqqq",
"qqqqqq>>>>>>>1qqqqqqqqqqqqqqqqqqqqqqqqqqqqqqqqqqqqqqqqqq>>>>>>>1qqqqqq",
"qqqqqq>>>>>>>>0qqqqqqqqqqqqqqqqqqqqqqqqqqqqqqqqqqqqqqqqq>>>>>>>>qqqqqq",
"qqqqqq1>>>>>>1qqqqqqqqqqqqqqqqqqqqqqqqqqqqqqqqqqqqqqqqqq1>>>>>>1qqqqqq",
"qqqqqq61>>>>>6qqqqqqqqqqqqqqqqqqqqqqqqqqqqqqqqqqqqqqqqqq6>1>>>>6qqqqqq",
"qqqqqqq81>>>6qqqqqqqqqqqqqqqqqqqqqqqqqqqqqqqqqqqqqqqqqqqq81>>>60qqqqqq",
"Aqqqqqqqq88qqqqqqqqqqqqqqqqqqqqqqqqqqqqqqqqqqqqqqqqqqqqqqqq88qqqqqqqqA",
"AqqqqqqqqqqqqqqqqqqqqqqqqqqqqqqqqqqqqqqqqqqqqqqqqqqqqqqqqqqqqqqqqqqqqA",
"Aqqqqqqqqqqqqqqqqqqqqqqqqqqqqqqqqqqqqqqqqqqqqqqqqqqqqqqqqqqqqqqqqqqq0A",
"AAqqqqqqqqqqqqqqqqqqqqqqqqqqqqqqqqqqqqqqqqqqqqqqqqqqqqqqqqqqqqqqqqqqAA",
"AAAAqqqqqqqqqqqqqqqqqqqqqqqqqqqqqqqqqqqqqqqqqqqqqqqqqqqqqqqqqqqqqqAAAA",
"AAAAA0qqqqqqqqqqqqqqqqqqqqqqqqqqqqqqqqqqqqqqqqqqqqqqqqqqqqqqqqqq0AAAAA"
};
