/* XPM */
static char *result[] = {
/* columns rows colors chars-per-pixel */
"70 70 65 1 ",
"  c gray20",
". c #313A3D",
"X c #304148",
"o c #39454A",
"O c #2F4853",
"+ c #2D505E",
"@ c #2C5769",
"# c #2B5E74",
"$ c #29657F",
"% c #346275",
"& c #476978",
"* c #286D8A",
"= c #277494",
"- c #257B9F",
"; c #4A7283",
": c #4E7C8F",
"> c #188BBC",
", c #188CBE",
"< c #2482AA",
"1 c #238AB5",
"2 c #51859A",
"3 c #458FAF",
"4 c #548EA6",
"5 c #5395B0",
"6 c #5BA0BD",
"7 c #188EC0",
"8 c #1990C2",
"9 c #1993C7",
"0 c #1B99CE",
"q c #1C9ED5",
"w c #1F9FD6",
"e c #2191C0",
"r c #2098CB",
"t c #1CA0D7",
"y c #1DA3DC",
"u c #1DA7E0",
"i c #1DA6E1",
"p c #1DA7E1",
"a c #1EA6E0",
"s c #1EA7E0",
"d c #1EA7E1",
"f c #22A8E1",
"g c #27AAE2",
"h c #2CACE2",
"j c #30AEE3",
"k c #35B0E4",
"l c #3AB2E4",
"z c #3EB4E5",
"x c #47A0C5",
"c c #5EA9C8",
"v c #54ADD2",
"b c #43B6E6",
"n c #48B7E6",
"m c #4CB9E7",
"M c #51BBE7",
"N c #5ABFE9",
"B c #5FC1E9",
"V c #62C2E9",
"C c #64C3EA",
"Z c #68C5EA",
"A c #69C5EA",
"S c #68C4EB",
"D c #69C4EB",
"F c #69C5EB",
"G c None",
/* pixels */
"GGGGGGZSSAFFFFFFFFFFFFFFFFFFFFFFFFFFFFFFFFFFFFFFFFFFFFFFFFFFASSZGGGGGG",
"GGGGDFFFFFFFFFFFFFFFFFFFFFFFFFFFFFFFFFFFFFFFFFFFFFFFFFFFFFFFFFFFFDGGGG",
"GGFFCnljjhddddddddddddddddddddddddddddddddddddddddddddddddddhjjlnBFFGG",
"GZFzddddddddddddddddddddddddddddddddddddddddddddddddddddddddddddddlCZG",
"GChddddddddddddddddddddddddddddddddddddddddddddddddddddddddddddddddfBG",
"GMddddddddddddddddddddddddddddddddddddddddddddddddddddddddddddddddddzG",
"Vfddddddy00tddddddddddddddddddddddddddddddddddddddddddddddy00tdddddddN",
"bdddddd0,>>>9dddddddddddddddddddddddddddddddddddddddddddd0,>>>9ddddddz",
"jddddd0>>>>>>0dddddddddddddddddddddddddddddddddddddddddd0>>>>>>0dddddj",
"fddddd,>>>>>>,dddddddddddddddddddddddddddddddddddddddddd,>>>>>>,dddddd",
"dddddd>>>>>>>>dddddddddddddddddddddddddddddddddddddddddd>>>>>>>>dddddd",
"dddddd7>>>>>>7dddddddddddddddddddddddddddddddddddddddddd7>>>>>>7dddddd",
"ddddddq>>>>>>qddddddddddddddddddddddddddddddddddddddddddq>>>>>>qdddddd",
"dddddddt8>>,qddddddddddddddddddddddddddddddddddddddddddddt8>>,qddddddd",
"dddddddddttddddddddddddddddddddddddddddddddddddddddddddddddttddddddddd",
"dddddddddddddddddddddddddddddddddddddddddddddddddddddddddddddddddddddd",
"dddddddddddddddddddddddddddddddddddddddddddddddddddddddddddddddddddddd",
"dddddddddddddddddddddddddddddddddddddddddddddddddddddddddddddddddddddd",
"dddddddddddddddddddddddddddddddddddddddddddddddddddddddddddddddddddddd",
"dddddddddddddddddddddddddddddddddddddddddddddddddddddddddddddddddddddd",
"dddddddddddddddddddddddddddddddddddddddddddddddddddddddddddddddddddddd",
"dddddddddddddddddddddddddddddddddddddddddddddddddddddddddddddddddddddd",
"dddddddddddddddddddddddddddddddddddddddddddddddddddddddddddddddddddddd",
"ddddddddddddddddddddddddddddddd-@++++$eddddddddddddddddddddddddddddddd",
"dddddddddddddddddddddddddddddeO        @wddddddddddddddddddddddddddddd",
"ddddddddddddddddddddddddddddwX          @ddddddddddddddddddddddddddddd",
"dddddddddddddddddddddddddddd+            *dddddddddddddddddddddddddddd",
"ddddddddddddddddddddddddddd<             .rddddddddddddddddddddddddddd",
"ddddddddddddddddddddddddddd@              =ddddddddddddddddddddddddddd",
"ddddddddddddddddddddddddddd.              @ddddddddddddddddddddddddddd",
"ddddddddddddddddddddddddddd               +ddddddddddddddddddddddddddd",
"ddddddddddddddddddddddddddd               +ddddddddddddddddddddddddddd",
"dddddddddddddddddddddddddddo              %ddddddddddddddddddddddddddd",
"ddddddddddddddddddddddddddd;              3ddddddddddddddddddddddddddd",
"dddddddddddddddddddddddddddv             onddddddddddddddddddddddddddd",
"dddddddddddddddddddddddddddm:            6lddddddddddddddddddddddddddd",
"dddddddddddddddddddddddddddgF&          4Bdddddddddddddddddddddddddddd",
"ddddddddddddddddddddddddddddbF2        cFjdddddddddddddddddddddddddddd",
"dddddddddddddddddddddddddddddn;        5lddddddddddddddddddddddddddddd",
"ddddddddddddddddddddddddddddddX        #dddddddddddddddddddddddddddddd",
"ddddddddddddddddddddddddddddd1          wddddddddddddddddddddddddddddd",
"ddddddddddddddddddddddddddddd#          -ddddddddddddddddddddddddddddd",
"ddddddddddddddddddddddddddddw.          Oddddddddddddddddddddddddddddd",
"dddddddddddddddddddddddddddd-            rdddddddddddddddddddddddddddd",
"dddddddddddddddddddddddddddd+            $dddddddddddddddddddddddddddd",
"dddddddddddddddddddddddddddr             Xdddddddddddddddddddddddddddd",
"ddddddddddddddddddddddddddd*              <ddddddddddddddddddddddddddd",
"dddddddddddddddddddddddddddX              #ddddddddddddddddddddddddddd",
"ddddddddddddddddddddddddddd               +ddddddddddddddddddddddddddd",
"ddddddddddddddddddddddddddd5::::::::::::::xddddddddddddddddddddddddddd",
"dddddddddddddddddddddddddddFFFFFFFFFFFFFFFMddddddddddddddddddddddddddd",
"dddddddddddddddddddddddddddkbbbbbbbbbbbbbbhddddddddddddddddddddddddddd",
"dddddddddddddddddddddddddddddddddddddddddddddddddddddddddddddddddddddd",
"dddddddddddddddddddddddddddddddddddddddddddddddddddddddddddddddddddddd",
"dddddddddddddddddddddddddddddddddddddddddddddddddddddddddddddddddddddd",
"dddddddddddddddddddddddddddddddddddddddddddddddddddddddddddddddddddddd",
"ddddddddy00tddddddddddddddddddddddddddddddddddddddddddddddy00tdddddddd",
"ddddddd0,>>>9dddddddddddddddddddddddddddddddddddddddddddd0,>>>9ddddddd",
"dddddd0>>>>>>0dddddddddddddddddddddddddddddddddddddddddd0>>>>>>0dddddd",
"dddddd,>>>>>>,dddddddddddddddddddddddddddddddddddddddddd,>>>>>>,dddddd",
"dddddd>>>>>>>>dddddddddddddddddddddddddddddddddddddddddd>>>>>>>>dddddd",
"dddddd7>>>>>>7dddddddddddddddddddddddddddddddddddddddddd7>>>>>>7dddddd",
"adddddq>>>>>>qddddddddddddddddddddddddddddddddddddddddddq>>>>>>qddddda",
"uddddddt8>>,qddddddddddddddddddddddddddddddddddddddddddddt8>>,qddddddu",
"GddddddddttddddddddddddddddddddddddddddddddddddddddddddddddttddddddddG",
"GddddddddddddddddddddddddddddddddddddddddddddddddddddddddddddddddddddG",
"GiddddddddddddddddddddddddddddddddddddddddddddddddddddddddddddddddddiG",
"GGpddddddddddddddddddddddddddddddddddddddddddddddddddddddddddddddddpGG",
"GGGGaddddddddddddddddddddddddddddddddddddddddddddddddddddddddddddaGGGG",
"GGGGGisddddddddddddddddddddddddddddddddddddddddddddddddddddddddsiGGGGG"
};
