/* XPM */
static char *result[] = {
/* columns rows colors chars-per-pixel */
"70 70 65 1 ",
"  c gray20",
". c #3E3631",
"X c #49392F",
"o c #543D2D",
"O c #4A3F38",
"+ c #60402C",
"@ c #6B442A",
"# c #764728",
"$ c #774D31",
"% c #795842",
"& c #AF581F",
"* c #BA5C1E",
"= c #824B26",
"- c #8D4E25",
"; c #985123",
": c #A45521",
"> c #B26C3D",
", c #C15813",
"< c #C35913",
"1 c #C55A13",
"2 c #C85B13",
"3 c #CD5D14",
"4 c #C65F1C",
"5 c #D46115",
"6 c #DB6415",
"7 c #DE6516",
"8 c #D1631A",
"9 c #DC6618",
"0 c #E36716",
"q c #E86915",
"w c #E86917",
"e c #E86A16",
"r c #E96A16",
"t c #E86A17",
"y c #E86C1B",
"u c #E86F1F",
"i c #C9763E",
"p c #E97223",
"a c #E97528",
"s c #EA782C",
"d c #EA7A30",
"f c #EA7D35",
"g c #EB7D35",
"h c #855E44",
"j c #916547",
"k c #9C6B4A",
"l c #A8714C",
"z c #B3744A",
"x c #C07E51",
"c c #EB8039",
"v c #EC8039",
"b c #EB833D",
"n c #D68249",
"m c #CB8454",
"M c #EC8642",
"N c #EC8846",
"B c #EE8F4F",
"V c #EE9153",
"C c #EE9355",
"Z c #EE9457",
"A c #EF965B",
"S c #EF975B",
"D c #EF965C",
"F c #EF975C",
"G c None",
/* pixels */
"GGGGGGSFFAFFFFFFFFFFFFFFFFFFFFFFFFFFFFFFFFFFFFFFFFFFFFFFFFFFAFFSGGGGGG",
"GGGGDFFFFFFFFFFFFFFFFFFFFFFFFFFFFFFFFFFFFFFFFFFFFFFFFFFFFFFFFFFFFDGGGG",
"GGDFZbdaapttttttttttttttttttttttttttttttttttttttttttttttttttpaadbVFDGG",
"GSFgttttttttttttttttttttttttttttttttttttttttttttttttttttttttttttttdZSG",
"GZpttttttttttttttttttttttttttttttttttttttttttttttttttttttttttttttttyVG",
"GNttttttttttttttttttttttttttttttttttttttttttttttttttttttttttttttttttgG",
"Cytttttt0557tttttttttttttttttttttttttttttttttttttttttttttt0557tttttttB",
"vtttttt5<,,,3tttttttttttttttttttttttttttttttttttttttttttt5<,,,3ttttttf",
"attttt5,,,,,,5tttttttttttttttttttttttttttttttttttttttttt5,,,,,,5ttttta",
"yttttt<,,,,,,<tttttttttttttttttttttttttttttttttttttttttt<,,,,,,<tttttt",
"tttttt,,,,,,,,tttttttttttttttttttttttttttttttttttttttttt,,,,,,,,tttttt",
"tttttt1,,,,,,1tttttttttttttttttttttttttttttttttttttttttt1,,,,,,1tttttt",
"tttttt6,,,,,,6tttttttttttttttttttttttttttttttttttttttttt6,,,,,,6tttttt",
"ttttttt72,,<6tttttttttttttttttttttttttttttttttttttttttttt72,,<6ttttttt",
"ttttttttt77tttttttttttttttttttttttttttttttttttttttttttttttt77ttttttttt",
"tttttttttttttttttttttttttttttttttttttttttttttttttttttttttttttttttttttt",
"tttttttttttttttttttttttttttttttttttttttttttttttttttttttttttttttttttttt",
"tttttttttttttttttttttttttttttttttttttttttttttttttttttttttttttttttttttt",
"tttttttttttttttttttttttttttttttttttttttttttttttttttttttttttttttttttttt",
"tttttttttttttttttttttttttttttttttttttttttttttttttttttttttttttttttttttt",
"tttttttttttttttttttttttttttttttttttttttttttttttttttttttttttttttttttttt",
"tttttttttttttttttttttttttttttttttttttttttttttttttttttttttttttttttttttt",
"tttttttttttttttttttttttttttttttttttttttttttttttttttttttttttttttttttttt",
"ttttttttttttttttttttttttttttttt:@++++=4ttttttttttttttttttttttttttttttt",
"ttttttttttttttttttttttttttttt4o        @9ttttttttttttttttttttttttttttt",
"tttttttttttttttttttttttttttt9X          @ttttttttttttttttttttttttttttt",
"tttttttttttttttttttttttttttt+            -tttttttttttttttttttttttttttt",
"ttttttttttttttttttttttttttt&             .8ttttttttttttttttttttttttttt",
"ttttttttttttttttttttttttttt@              ;ttttttttttttttttttttttttttt",
"ttttttttttttttttttttttttttt.              @ttttttttttttttttttttttttttt",
"ttttttttttttttttttttttttttt               +ttttttttttttttttttttttttttt",
"ttttttttttttttttttttttttttt               +ttttttttttttttttttttttttttt",
"tttttttttttttttttttttttttttO              $ttttttttttttttttttttttttttt",
"ttttttttttttttttttttttttttth              >ttttttttttttttttttttttttttt",
"tttttttttttttttttttttttttttn             Obttttttttttttttttttttttttttt",
"tttttttttttttttttttttttttttMj            xdttttttttttttttttttttttttttt",
"tttttttttttttttttttttttttttuF%          lVtttttttttttttttttttttttttttt",
"ttttttttttttttttttttttttttttcFk        mFatttttttttttttttttttttttttttt",
"tttttttttttttttttttttttttttttbh        zdttttttttttttttttttttttttttttt",
"ttttttttttttttttttttttttttttttX        #tttttttttttttttttttttttttttttt",
"ttttttttttttttttttttttttttttt*          9ttttttttttttttttttttttttttttt",
"ttttttttttttttttttttttttttttt#          :ttttttttttttttttttttttttttttt",
"tttttttttttttttttttttttttttt9.          ottttttttttttttttttttttttttttt",
"tttttttttttttttttttttttttttt:            8tttttttttttttttttttttttttttt",
"tttttttttttttttttttttttttttt+            =tttttttttttttttttttttttttttt",
"ttttttttttttttttttttttttttt8             Xtttttttttttttttttttttttttttt",
"ttttttttttttttttttttttttttt-              &ttttttttttttttttttttttttttt",
"tttttttttttttttttttttttttttX              #ttttttttttttttttttttttttttt",
"ttttttttttttttttttttttttttt               +ttttttttttttttttttttttttttt",
"tttttttttttttttttttttttttttzjjjjjjjjjjjjjjittttttttttttttttttttttttttt",
"tttttttttttttttttttttttttttFFFFFFFFFFFFFFFNttttttttttttttttttttttttttt",
"tttttttttttttttttttttttttttsccccccccccccccpttttttttttttttttttttttttttt",
"tttttttttttttttttttttttttttttttttttttttttttttttttttttttttttttttttttttt",
"tttttttttttttttttttttttttttttttttttttttttttttttttttttttttttttttttttttt",
"tttttttttttttttttttttttttttttttttttttttttttttttttttttttttttttttttttttt",
"tttttttttttttttttttttttttttttttttttttttttttttttttttttttttttttttttttttt",
"tttttttt0557tttttttttttttttttttttttttttttttttttttttttttttt0557tttttttt",
"ttttttt5<,,,3tttttttttttttttttttttttttttttttttttttttttttt5<,,,3ttttttt",
"tttttt5,,,,,,5tttttttttttttttttttttttttttttttttttttttttt5,,,,,,5tttttt",
"tttttt<,,,,,,<tttttttttttttttttttttttttttttttttttttttttt<,,,,,,<tttttt",
"tttttt,,,,,,,,tttttttttttttttttttttttttttttttttttttttttt,,,,,,,,tttttt",
"tttttt1,,,,,,1tttttttttttttttttttttttttttttttttttttttttt1,,,,,,1tttttt",
"ettttt6,,,,,,6tttttttttttttttttttttttttttttttttttttttttt6,,,,,,6ttttte",
"wtttttt72,,<6tttttttttttttttttttttttttttttttttttttttttttt72,,<6ttttttw",
"Gtttttttt77tttttttttttttttttttttttttttttttttttttttttttttttt77ttttttttG",
"GttttttttttttttttttttttttttttttttttttttttttttttttttttttttttttttttttttG",
"GqttttttttttttttttttttttttttttttttttttttttttttttttttttttttttttttttttqG",
"GGrttttttttttttttttttttttttttttttttttttttttttttttttttttttttttttttttrGG",
"GGGGetttttttttttttttttttttttttttttttttttttttttttttttttttttttttttteGGGG",
"GGGGGqwttttttttttttttttttttttttttttttttttttttttttttttttttttttttwqGGGGG"
};
