/* XPM */
static char *_02a0ac40a5844d7ccf6b751fd228162TTHzQGJ6eiursKDY[] = {
/* columns rows colors chars-per-pixel */
"66 92 88 1 ",
"  c None",
". c #5C9785",
"X c #5E9A88",
"o c #619E8B",
"O c #64A18E",
"+ c #67A592",
"@ c #6AA895",
"# c #6DAC98",
"$ c #70AF9C",
"% c #73B39F",
"& c #76B6A2",
"* c #79BAA6",
"= c #7CBDA9",
"- c #6FC3A9",
"; c #6FC4A8",
": c #6FC4A9",
"> c #71C5AA",
", c #72C5AB",
"< c #74C6AC",
"1 c #75C6AC",
"2 c #76C7AD",
"3 c #77C7AE",
"4 c #7FC1AC",
"5 c #78C7AE",
"6 c #78C8AE",
"7 c #79C8AE",
"8 c #79C8AF",
"9 c #7AC8AF",
"0 c #7BC9B0",
"q c #7CC9B0",
"w c #7DCAB1",
"e c #7DCAB2",
"r c #82C4B0",
"t c #81CBB3",
"y c #85C8B3",
"u c #88CBB6",
"i c #8ACFB9",
"p c #8BCFBA",
"a c #8CCFBB",
"s c #8CD0BB",
"d c #8DD0BB",
"f c #8FD0BC",
"g c #8FD1BC",
"h c #90D1BD",
"j c #91D2BD",
"k c #92D2BE",
"l c #93D2BE",
"z c #93D2BF",
"x c #94D3BF",
"c c #96D4C0",
"v c #97D4C1",
"b c #98D4C1",
"n c #98D5C1",
"m c #99D5C2",
"M c #9BD5C3",
"N c #9AD6C3",
"B c #9CD6C3",
"V c #9CD7C4",
"C c #9ED7C5",
"Z c #9ED7C6",
"A c #9FD8C6",
"S c #A0D8C6",
"D c #A2D9C8",
"F c #A3D9C8",
"G c #A5DAC9",
"H c #A8DBCB",
"J c #AADCCB",
"K c #AFDECF",
"L c #B1DFD1",
"P c #B6E1D3",
"I c #B7E1D4",
"U c #BDE4D8",
"Y c #C0E5D9",
"T c #C5E7DC",
"R c #C9E8DE",
"E c #CCEAE0",
"W c #D2ECE4",
"Q c #D3EDE5",
"! c #DAF0E9",
"~ c #DBF0E9",
"^ c #E2F3ED",
"/ c #E4F3EE",
"( c #E9F6F2",
") c #EDF7F4",
"_ c #F0F9F6",
"` c #F6FBF9",
"' c #F7FCFA",
"] c white",
/* pixels */
"                            ]]]]]]]]]                             ",
"                       ]]]]]]]]]]]]]]]]]]]]                       ",
"                    ]]]]]]]]]]]]]]]]]]]]]]]]]                     ",
"                  ]]]]]]]]]]]]]]]]]]]]]]]]]]]]]                   ",
"                ]]]]]]]]]]]]]]]]]]]]]]]]]]]]]]]]]                 ",
"              ]]]]]]]]]]]]]]         ]]]]]]]]]]]]]]               ",
"             ]]]]]]]]]]]                 ]]]]]]]]]]]              ",
"            ]]]]]]]]]                       ]]]]]]]]]]            ",
"          ]]]]]]]]]         Shhhhhhxb         ]]]]]]]]]           ",
"          ]]]]]]]]      DhppasspsaasppshC       ]]]]]]]]          ",
"         ]]]]]]]      Csppppapppppppppppppb      ]]]]]]]]         ",
"        ]]]]]]]      fppppppppppppppppppppsf       ]]]]]]]        ",
"       ]]]]]]]      ppppppppppppppppppppppsspv      ]]]]]]        ",
"      ]]]]]]]     bppppppppppppppppppppshvNNNbS      ]]]]]]       ",
"     ]]]]]]]     CpppppppppppppppppppshACNNNNNND      ]]]]]]      ",
"     ]]]]]]      pppppppppppppppppppphBbbVNNNNNNJ     ]]]]]]      ",
"    ]]]]]]      ppppppppppppppppppssfNNNNNNNNNNNbP     ]]]]]]     ",
"    ]]]]]]     spppppppppppppppppisfvNNNNNNNNNNNNN      ]]]]]]    ",
"   ]]]]]]     hpppppppppppppppppppskVVNNNNNNNNNNNNC     ]]]]]]    ",
"   ]]]]]      ppppppppppppppppppppsNNNNNNNNNNNNNNNbL     ]]]]]]   ",
"  ]]]]]]     fppppppppppppppppppppfvNNNNNNNNNNNNNNNA     ]]]]]]   ",
"  ]]]]]     DppppppppppppppppppppphVNNNNNNNNNNNNNNNNP     ]]]]]   ",
" ]]]]]]     hpppppppppppppppppppsskVNNNNNNNNNNNNNNNNN     ]]]]]]  ",
" ]]]]]]     ppppppppppppppppppppsskbNNNNNNNNNNNNNNNNb      ]]]]]  ",
" ]]]]]     DppppppppppppppppppppppsbVNNNNNNNNNNNVvbVbD     ]]]]]  ",
" ]]]]]     xppppppppppppppppppppppsvNNNNNNNNNNNNVVVVbx     ]]]]]] ",
" ]]]]]     hpppppppppppppppppppppppfNNNNNNNNNNNNvVVbvf      ]]]]] ",
"]]]]]      pppppppppppppppppppppppppvNNNNNNNNNNNNNbvss      ]]]]] ",
"]]]]]      pppppppppppppppppppppppppsxbNNNNNNNNVNNvspp      ]]]]] ",
"]]]]]      pppppppppppppppppppppppppsskNNNNNNNNVNvsspp      ]]]]] ",
"]]]]]      pppppppppppppppppppppppppppskvVNVNNbbhpsspp      ]]]]] ",
"]]]]]      ppppppppppppppppppppppppppssssfhkkhfpsppppp      ]]]]] ",
"]]]]]      ppppppppppppppppppppppppppppppppppppppppppp      ]]]]] ",
"]]]]]      ppppppppppppppppppppppppppppppppppppppppppp      ]]]]] ",
"]]]]]      pppppppppppppppppppppppppppppppsspppppppppp      ]]]]] ",
"]]]]]      ppppppppppppppppppppppppppppppppspppppppppp      ]]]]] ",
"]]]]]      ppppppppppppppu%+++@4pppppppppppy#+++#ysipp      ]]]]] ",
"]]]]]]     pppppppppppppp+......4pppppppppu.......uspp      ]]]]] ",
" ]]]]]     ppppppppppppp%.......Xuppppppss+.......+spp      ]]]]] ",
" ]]]]]     ppppppppppppu.........#pppppps*.........=pp     ]]]]]] ",
" ]]]]]     pppppppppppp4.........+ssppppp%.........%pp     ]]]]]  ",
" ]]]]]     pppppppppppp4.........+psppppp%.........%pp     ]]]]]  ",
" ]]]]]]    ppppppppppppu.........#ppppppp=.........=pp    ]]]]]]  ",
"  ]]]]]    ppppppppppppp$.......XyppppppppO.......Oppp    ]]]]]]  ",
"  ]]]]]]   pppppppppppppu+.....X*spppppppprX.....orppp    ]]]]]   ",
"   ]]]]]   ppppppppppppppp$X..Orsspppppppppu@...@upppp   ]]]]]]   ",
"   ]]]]]]  pppppppppppppppppppppppppppppppppsspppppppp   ]]]]]    ",
"   ]]]]]]  pppppppppppppppppppppppppppppppppsspppppppp  ]]]]]]    ",
"    ]]]]]] appppppppppppppppppy@rpppppppppy@rppppppppp ]]]]]]     ",
"     ]]]]]]hpppppppppppppppppp*.+ppppppppp@.&ppppppppp ]]]]]]     ",
"     ]]]]]]Wppppppppppppppppppuo.#upppppp&.XuppppppppH]]]]]]      ",
"      ]]]]]]WpppppppppppppppppprX..#%%%$X..4ppppppppS']]]]]       ",
"       ]]]]]]^hsppppppppppppppppy$.......@rppppppppP']]]]]]       ",
"       ]]]]]]](hppppppppppppppppppr%%%%%rpppppppppP]]]]]]]        ",
"        ]]]]]]](bspppppppppppppppppppppppppppppspU]]]]]]]         ",
"        7/]]]]]]'Hpppppppppppppppppppppppppppppb(]]]]]]]          ",
"      ::;;E]]]]]]]WhsappppppppppppppppppppppppP']]]]]]/e          ",
"     ;::;;-E]]]]]]]'PhpsppppppppppppppppasppK(]]]]]]]/8:;         ",
"     :::;:::U`]]]]]]]'EbppppppppppppppppphU_]]]]]]]]U5::;;        ",
"    ::::::::-p(]]]]]]]]]^THpppppppppppSU!]]]]]]]]]`G->::;;        ",
"   ;::::::::;:8E]]]]]]]]]]]](^^^^^^^^]]]]]]]]]]]]W5;::::::;       ",
"   :::::::::;;--h)]]]]]]]]]]]]]]]]]]]]]]]]]]]]])B;;;:::::::       ",
"  -::::::; :::-;;;B^]]]]]]]]]]]]]]]]]]]]]]]]])G:::;::::::::;      ",
"  :::::-   :::;;;->;pR)]]]]]]]]]]]]]]]]]]])Rh;:::::::::::::;      ",
"  :::::    ::::::::::::cI!']]]]]]]]]]]'!Ic-->>><>>;;;; ;::::      ",
"  :::::    :::::::::::::--:thhxhccffxe::;:;;>ee99>;>;; ;::::;     ",
" ;::::     :::::::::::::;:::;;>;::::;;;:::::7eeee9>;::  ::::;     ",
" ;::::     :::::::::::::;::::;;;::::;;::::::eeeee9>>::  :::::     ",
" ;::::     :::::::::::::::::::::::::::;;::::8eeee0::::  :::::     ",
" ;::::     ::::::::::::::::::::::::::::;::::-00e0:::::  :::::     ",
" ;::::     :::::::::::::::::::::;:;;::;;::::;:,,-;::::  :::::     ",
"  ::::     ;::::::::::::::::::::;<333<;;::::;:::;;:::;  :::::     ",
"           -::::::::::::::::::::7wwwww,;->>70<:::::::-            ",
"            :::::::::::::::::::<wwwwww7>;><e0e,::::::             ",
"            :::::::::::::::::::09w9ewww,;;0eee,;::::;             ",
"            ;::::::::::::::::;-8t9tewww<;;>ee<::::::              ",
"            ;::::::::::::::::::3eee9eee:;::::::::::               ",
"            :::::::::::::::::::;0eeeee<:::::::::::                ",
"            ::::::::::::::::::::>7eee<::::::::::::                ",
"            ::::::::::::::::::::;;;;;>::::::::::::                ",
"           :::::::::::::::::::::::::::::::::::::::                ",
"           ;:::::::::;;-::::::::::::::::::::::::::                ",
"           ::::::::::     -;::::::::::-;:::::::::-                ",
"           :::::::::-                   :::::::::;                ",
"           :::::::::;                   :::::::::;                ",
"           :::::::::                    :::::::::;                ",
"          ;:::::::::                    :::::::::;                ",
"          -::::::::                     ;::::::::                 ",
"          :::::::::                     ;::::::::                 ",
"          ::::::::;                      ::::::::                 ",
"          ::::::::                       ::::::::                 ",
"          ;;;;;;;-                       ;;;;;;;;                 "
};
