/* XPM */
static char *result[] = {
/* columns rows colors chars-per-pixel */
"59 12 34 1 ",
"  c #D244E2",
". c #D348E3",
"X c #D44CE4",
"o c #D651E5",
"O c #D755E6",
"+ c #D959E7",
"@ c #DA5EE8",
"# c #DC62E9",
"$ c #DD67EB",
"% c #DE6BEC",
"& c #E06FED",
"* c #E174EE",
"= c #E378EF",
"- c #E47CF0",
"; c #E785F2",
": c #E989F3",
"> c #E98AF3",
", c #E889F4",
"< c #E88AF4",
"1 c #E98AF4",
"2 c #E98BF4",
"3 c #E98DF4",
"4 c #E98EF4",
"5 c #EA90F4",
"6 c #EA91F4",
"7 c #EA93F4",
"8 c #EB96F4",
"9 c #EB98F4",
"0 c #EB99F4",
"q c #EB9BF4",
"w c #EC9CF4",
"e c #ECA1F4",
"r c #EDA3F5",
"t c None",
/* pixels */
"ttttttttttttttttttttttt1<<<<<<<<<qttttttttttttttttttttttttt",
"ttttttttttttttttt1>111111111111119rrrrr4ttttttttttttttttttt",
"tttttttttttttt<1111111111111111113errr9111>1ttttttttttttttt",
"tttttttttttt:11111111111111111111128863qww021<ttttttttttttt",
"tttttttttt,1111111111111111111111111110rrrr0111<ttttttttttt",
"tttttttt<11111111111111111111111111114rrrrrr4111>tttttttttt",
"ttttttt>11111&$OO  &1111* .O#&-1111115rrrrrr511111ttttttttt",
"tttttt,111111@     %1111&     X1111112rrrrrr211111:tttttttt",
"ttttt:1111111;O   X======+o  X-11111117rrrr71111111tttttttt",
"ttttt111111111111;@+$$$$++;1111111111114884111111111<tttttt",
"tttt1111111111111=%111111%=1111111111111111111111111111:ttt",
"tt,1111111111111111111111111111111111111111111111111111111t"
};
