/* XPM */
static char *result[] = {
/* columns rows colors chars-per-pixel */
"51 26 37 1 ",
"  c #D244E2",
". c #D348E3",
"X c #D755E6",
"o c #D959E7",
"O c #DA5EE8",
"+ c #DC62E9",
"@ c #DD67EB",
"# c #DE6BEC",
"$ c #E06FED",
"% c #E174EE",
"& c #E378EF",
"* c #E681F1",
"= c #E785F2",
"- c #E989F3",
"; c #E98AF3",
": c #E889F4",
"> c #EA89F4",
", c #E88AF4",
"< c #E98AF4",
"1 c #E98BF4",
"2 c #E98DF4",
"3 c #E98EF4",
"4 c #EA90F4",
"5 c #EA91F4",
"6 c #EA92F4",
"7 c #EA93F4",
"8 c #EA94F4",
"9 c #EB96F4",
"0 c #EB98F4",
"q c #EB99F4",
"w c #EB9BF4",
"e c #EC9CF4",
"r c #EC9EF4",
"t c #EDA0F4",
"y c #ECA1F4",
"u c #EDA3F5",
"i c None",
/* pixels */
"iiiiiiiiiiiiiiiiiiiiiiiiiiiiiiiiiiiiiiiiiiiiiiiiiii",
"iiiiiiiiiiii>;<<<<<<<<<<<<:>iiiiiiiiiiiiiiiiiiiiiii",
"iiiiiiiiii,<<<<<<<<<<<<<<<<<<,iiiiiiiiiiiiiiiiiiiii",
"iiiiiiii-<<<<<<<<<<<<<<<3eee8<<,iiiiiiiiiiiiiiiiiii",
"iiiiiii;<<<<<<<<<<<<<<<1ruuuy3<<<iiiiiiiiiiiiiiiiii",
"iiiiii<<<<<<<<<<<<<<<<<8uuuuuw<<2wtiiiiiiiiiiiiiiii",
"iiiii;<<<<<<<<<<<<<<<<<9uuuuue<<quu6iiiiiiiiiiiiiii",
"iiii;<<<<<<<<<<<<<<<<<<4uuuuu9<<9uu2,iiiiiiiiiiiiii",
"iii,<<<<<<<<<<<<<<<<<<<<7uuu0<<<<33<<-iiiiiiiiiiiii",
"iii<<<<<<<<<<<<<<<<<<<<<<343<5qee5<<<<<iiiiiiiiiiii",
"ii;<<<<<<<<<<<<<<<<<<<<<<<<<9uuuuy1<<<<iiiiiiiiiiii",
"ii<<<<<<<<<<<<<<<<<<<<<<<<<<yuuuuu8<<<<;iiiiiiiiiii",
"i<<<<<&<<<<<<<<<<<<<*@=<<<<<uuuuuu9<<<<<-iiiiiiiiii",
"i<<<<% .o#*<<<<<<=$X  X<<<<<euuuuu4<<<<<<iiiiiiiiii",
"i<<<<O     @<<<<$.     <<<<<3yuuuq<<<<<<<<iiiiiiiii",
"i<<<<o     #<<<<#     .<<<<<<1995<<<<<<<<<iiiiiiiii",
"i<<<<$    .=<<<<=.    @<<<<<<<<<<<<<<<<<<<iiiiiiiii",
"-<<<<<%XXo*<<<<<<*+XX%<<<<<<<<<<<<<<<<<<<<iiiiiiiii",
"-<<<<<<<<<<&@@@@%<<<<<<<<<<<<<<<<<<<<<<<<<:iiiiiiii",
"i<<<<<<<<<$.XXXX.+<<<<<<<<<<<<<<<<<<<<<<<<<>iiiiiii",
"i<<<<<<<<*.$<<<<% $<<<<<<<<<<<<<<<<<<<<<<<<<iiiiiii",
"i<<<<<<<<&O<<<<<<+$<<<<<<<<<<<<<<<<<<<<<<<<<<,iiiii",
"i<<<<<<<<<<<<<<<<<<<<<<<<<<<<<<<<<<<<<<<<<<<<<;iiii",
"i:<<<<<<<<<<<<<<<<<<<<<<<<<<<<<<<<<<<<<<<<<<<<<<:ii",
"i<<<<<<<<<<<<<<<<<<<<<<<<<<<<<<<<<<<<<<<<<<<<<<<<<i",
"ii<<<<<<<<<<<<<<<<<<<<<<<<<<<<<<<<<<<<<<<<<<<<<<<<i"
};
