/* XPM */
static char *result[] = {
/* columns rows colors chars-per-pixel */
"50 28 35 1 ",
"  c #D244E2",
". c #D348E3",
"X c #D755E6",
"o c #D959E7",
"O c #DA5EE8",
"+ c #DC62E9",
"@ c #DD67EB",
"# c #DE6BEC",
"$ c #E06FED",
"% c #E174EE",
"& c #E378EF",
"* c #E681F1",
"= c #E785F2",
"- c #E989F3",
"; c #E98AF3",
": c #E889F4",
"> c #EA89F4",
", c #E88AF4",
"< c #E98AF4",
"1 c #E98BF4",
"2 c #E98DF4",
"3 c #E98EF4",
"4 c #EA90F4",
"5 c #EA91F4",
"6 c #EA93F4",
"7 c #EA94F4",
"8 c #EB96F4",
"9 c #EB98F4",
"0 c #EB99F4",
"q c #EB9BF4",
"w c #EC9CF4",
"e c #EC9EF4",
"r c #ECA1F4",
"t c #EDA3F5",
"y c None",
/* pixels */
"yyyyyyyyyyyyyyyyy<,,,,,,,yyyyyyyyyyyyyyyyyyyyyyyyy",
"yyyyyyyyyyyyy>;<<<<<<<<<<<<<,yyyyyyyyyyyyyyyyyyyyy",
"yyyyyyyyyyy-<<<<<<<<<<<<<<<<<<:yyyyyyyyyyyyyyyyyyy",
"yyyyyyyyyy<<<<<<<<<<<<<<<<<<<<<<<yyyyyyyyyyyyyyyyy",
"yyyyyyyy<<<<<<<<<<<<<<<<<<<<<<<<<<yyyyyyyyyyyyyyyy",
"yyyyyyy;<<<<<<<<<<<<<<<3www7<<<<<<<<yyyyyyyyyyyyyy",
"yyyyyy:<<<<<<<<<<<<<<<1etttr3<<<<<<<yyyyyyyyyyyyyy",
"yyyyy<<<<<<<<<<<<<<<<<7tttttq<<2qw<<<yyyyyyyyyyyyy",
"yyyy-<<<<<<<<<<<<<<<<<8tttttw<<0tt4<<<yyyyyyyyyyyy",
"yyyy<<<<<<<<<<<<<<<<<<4ttttt8<<8tt2<<<:yyyyyyyyyyy",
"yyy<<<<<<<<<<<<<<<<<<<<6ttt9<<<<33<<<<<>yyyyyyyyyy",
"yy<<<<<<<<<<<<<<<<<<<<<<343<50ww5<<<<<<<yyyyyyyyyy",
"yy<<<<<<<<<<<<<<<<<<<<<<<<<8ttttr1<<<<<<<yyyyyyyyy",
"y<<<<&<<<<<<<<<<<<<*@=<<<<<rttttt7<<<<<<<yyyyyyyyy",
"y;<<% .o#*<<<<<<=$X  X<<<<<tttttt8<<<<<<<yyyyyyyyy",
"y<<<O     @<<<<$.     <<<<<wttttt4<<<<<<<<yyyyyyyy",
"y<<<o     #<<<<#     .<<<<<3rttt0<<<<<<<<<yyyyyyyy",
",<<<$    .=<<<<=.    @<<<<<<1885<<<<<<<<<<yyyyyyyy",
":<<<<%XXo*<<<<<<*+XX%<<<<<<<<<<<<<<<<<<<<<yyyyyyyy",
"<<<<<<<<<<&@@@@%<<<<<<<<<<<<<<<<<<<<<<<<<<>yyyyyyy",
"<<<<<<<<<$.XXXX.+<<<<<<<<<<<<<<<<<<<<<<<<<;yyyyyyy",
"<<<<<<<<*.$<<<<% $<<<<<<<<<<<<<<<<<<<<<<<<<<yyyyyy",
"<<<<<<<<&O<<<<<<+$<<<<<<<<<<<<<<<<<<<<<<<<<<-yyyyy",
";<<<<<<<<<<<<<<<<<<<<<<<<<<<<<<<<<<<<<<<<<<<<<yyyy",
",<<<<<<<<<<<<<<<<<<<<<<<<<<<<<<<<<<<<<<<<<<<<<;yyy",
"<<<<<<<<<<<<<<<<<<<<<<<<<<<<<<<<<<<<<<<<<<<<<<<<:y",
"y<<<<<<<<<<<<<<<<<<<<<<<<<<<<<<<<<<<<<<<<<<<<<<<<y",
"y<<<<<<<<<<<<<<<<<<<<<<<<<<<<<<<<<<<<<<<<<<<<<<<<y"
};
