/* XPM */
static char *_54786c9d3274e4ac210bd42a7437d58HPasDnuMXHzFuvct[] = {
/* columns rows colors chars-per-pixel */
"70 70 8 1 ",
"  c #ACC0C1",
". c #AEC2C3",
"X c #B0C3C4",
"o c #B1C4C5",
"O c #B5C6C7",
"+ c #B6C7C8",
"@ c #B8C8C9",
"# c #BBCBCC",
/* pixels */
"                                                                      ",
"                                                                      ",
"                                                                      ",
"                                                                      ",
"                                                                      ",
"                                                                      ",
"                                                                      ",
"                                                                      ",
"                                                                      ",
"                                                                      ",
"                                                                      ",
"                                                                      ",
"           @o                     OO                     o@           ",
"          @##o                   O##O                   o##@          ",
"         @####o                 O####O                 o####@         ",
"        @######o               O######O               o######@        ",
"       @########o             O########O             o########@       ",
"      @##########o           +##########+           o##########@      ",
"     @############o         @############@         o#############     ",
"    ###############o       @##############@       o###############.   ",
"   #################o     @################@     o#################.  ",
" .###################o   @##################@   o##################@. ",
".#####################o @####################@ o##################### ",
"@######################@######################@#######################",
"######################################################################",
"######################################################################",
"######################################################################",
"###########o@#####################OO#####################@o###########",
"##########o  @###################O  O###################@  o##########",
"#########o    @#################O    O#################@    o#########",
"########o      @###############@      O###############@      o########",
"#######o        @#############@        O#############@        o#######",
"######o          @###########O          +###########@          o######",
"#####.            @#########o            o#########@            .#####",
"####               @#######o              o#######@              .####",
"###.                @#####o                o#####@                 ###",
"##.                  @###o                  o###@                  .@#",
"@.                    @#o                    o#@                    .#",
".                      .                      .                      .",
"                                                                      ",
"                                                                      ",
"                                                                      ",
"           O                      oo                      @           ",
"          O##                    o##o                    ##+          ",
"         O####.                 o####o                 .@###O         ",
"        +######                o######o               .######O        ",
"       @########              o########o              ########O       ",
"      +##########.           o##########o            ##########O      ",
"     O############          +############+         .############@     ",
"    @##############        @##############o        ##############@    ",
"   @###############@.     +################@      ################@   ",
"  @##################.   o##################@   .##################@  ",
" @####################  +####################+  ####################@ ",
"@######################+######################+@#####################@",
"######################################################################",
"######################################################################",
"######################################################################",
"###########o@#####################OO#####################@o###########",
"##########o  @###################O  O####################. .##########",
"#########o    @#################+    O##################.   .@########",
"########o      @###############O      O###############@.     .########",
"#######o        @#############O        O##############.       .@######",
"######           @###########O          @############.         .######",
"#####             O#########O            o#########@             #####",
"####               @#######O              o#######@               ####",
"###.                +#####O                o#####@                .###",
"#@.                  o###O                  o###@                  .##",
"#o                    @#+                    o#@                    .@",
"o                      o                      .                      .",
"                                                                      "
};
